<?xml version="1.0" standalone="no"?>
<!DOCTYPE svg PUBLIC "-//W3C//DTD SVG 20010904//EN"
 "http://www.w3.org/TR/2001/REC-SVG-20010904/DTD/svg10.dtd">
<svg version="1.0" xmlns="http://www.w3.org/2000/svg"
 width="500.000000pt" height="500.000000pt" viewBox="0 0 500.000000 500.000000"
 preserveAspectRatio="xMidYMid meet">
<metadata>
Created by potrace 1.11, written by Peter Selinger 2001-2013
</metadata>
<g transform="translate(0.000000,500.000000) scale(0.100000,-0.100000)"
fill="#000000" stroke="none">
<path d="M2546 4952 c-3 -5 -29 -7 -57 -5 -31 2 -58 -2 -67 -10 -13 -10 -15
-9 -8 3 4 8 -1 6 -11 -5 -10 -11 -25 -19 -35 -17 -9 2 -19 -2 -23 -7 -3 -7 1
-9 12 -6 10 3 3 -2 -14 -10 -18 -8 -33 -18 -33 -21 0 -3 6 -2 13 1 6 4 2 -3
-11 -14 -13 -11 -21 -25 -17 -31 3 -5 -2 -10 -12 -10 -15 0 -16 -2 -3 -10 13
-9 8 -14 -12 -11 -3 0 -5 -11 -3 -25 1 -13 0 -22 -3 -19 -8 8 -53 -75 -46 -86
3 -5 -3 -9 -12 -9 -10 0 -15 -3 -11 -6 3 -3 -3 -22 -13 -42 -11 -19 -16 -40
-13 -45 3 -6 1 -7 -5 -3 -6 3 -16 -3 -22 -14 -8 -15 -8 -20 2 -20 10 0 10 -2
-1 -9 -8 -5 -10 -14 -5 -22 7 -12 5 -12 -9 -1 -14 12 -16 11 -12 -7 2 -12 0
-21 -6 -21 -5 0 -8 -6 -7 -12 2 -7 -2 -12 -9 -11 -7 2 -10 -4 -6 -13 3 -9 0
-20 -8 -25 -14 -8 -15 -12 -18 -45 -1 -11 -7 -14 -17 -10 -14 5 -15 4 -4 -9 8
-10 9 -15 1 -15 -6 0 -11 -9 -11 -21 0 -11 -4 -17 -10 -14 -5 3 -10 -3 -10
-14 0 -12 -5 -21 -12 -21 -6 0 -8 -3 -5 -7 4 -3 -1 -12 -11 -20 -9 -8 -11 -11
-3 -7 11 5 13 3 8 -10 -4 -10 -7 -20 -7 -22 0 -2 -6 -4 -14 -4 -9 0 -13 -7
-11 -19 2 -11 -3 -22 -11 -25 -8 -3 -14 -10 -14 -16 0 -6 6 -8 13 -5 6 4 3 -1
-8 -10 -11 -9 -20 -19 -20 -23 0 -4 -3 -6 -7 -5 -8 3 -12 -13 -9 -31 1 -4 -6
-15 -16 -23 -10 -8 -11 -11 -3 -7 13 7 13 5 1 -9 -7 -9 -10 -17 -5 -17 4 0 0
-6 -11 -13 -10 -8 -15 -19 -11 -25 4 -7 1 -12 -9 -12 -9 0 -14 -4 -11 -9 3 -5
-4 -20 -15 -35 -19 -24 -19 -25 -2 -20 12 3 10 1 -5 -8 -18 -11 -20 -16 -10
-27 10 -11 10 -12 1 -7 -8 5 -13 1 -13 -9 0 -10 -5 -13 -12 -9 -6 4 -8 3 -4
-4 3 -6 2 -13 -4 -17 -6 -4 -8 -10 -5 -15 3 -5 -2 -15 -10 -24 -8 -8 -14 -21
-13 -28 2 -7 -3 -12 -11 -10 -8 2 -11 -3 -8 -13 4 -8 2 -15 -3 -15 -6 0 -10
-9 -10 -21 0 -11 -4 -17 -10 -14 -6 3 -10 -5 -10 -19 0 -14 -5 -28 -12 -32 -7
-5 -8 -3 -3 6 5 9 4 11 -4 6 -8 -5 -9 -12 -2 -19 9 -12 -11 -41 -22 -31 -2 3
-4 -10 -3 -28 0 -23 -4 -33 -14 -33 -9 0 -15 -9 -15 -22 0 -11 -4 -25 -9 -30
-6 -5 -6 -2 -1 7 6 11 5 12 -3 5 -6 -6 -13 -21 -15 -34 -2 -12 -9 -26 -16 -30
-7 -4 -11 -14 -9 -22 2 -8 -2 -13 -9 -12 -8 2 -10 -4 -6 -14 4 -11 3 -14 -5
-9 -8 5 -10 1 -5 -10 4 -12 3 -15 -5 -10 -8 5 -10 2 -6 -8 3 -9 1 -16 -6 -16
-6 0 -8 -4 -5 -10 3 -5 1 -10 -6 -10 -9 0 -9 -4 1 -15 10 -12 8 -14 -9 -10
-13 2 -18 -1 -15 -9 3 -7 -2 -19 -11 -26 -12 -10 -13 -16 -3 -28 8 -10 9 -13
2 -9 -13 8 -27 -19 -18 -34 3 -5 0 -8 -8 -7 -8 2 -14 -8 -16 -24 -2 -16 -9
-28 -17 -28 -7 0 -12 -8 -11 -17 0 -10 -4 -17 -11 -16 -7 2 -10 -3 -7 -11 3
-8 0 -17 -6 -21 -9 -6 -9 -10 1 -16 11 -7 10 -9 -4 -9 -10 0 -15 -4 -12 -10 3
-5 1 -10 -4 -10 -6 0 -11 -9 -11 -19 0 -11 -7 -27 -16 -35 -8 -9 -12 -16 -7
-16 4 0 0 -5 -9 -11 -10 -5 -15 -16 -12 -24 4 -8 1 -15 -6 -15 -6 0 -8 -4 -5
-10 3 -5 0 -10 -9 -10 -8 0 -13 -8 -12 -17 2 -10 -4 -24 -13 -31 -13 -11 -13
-12 -1 -7 13 6 13 5 0 -7 -8 -7 -15 -20 -15 -28 0 -8 -6 -14 -14 -12 -8 2 -11
-3 -8 -12 4 -9 2 -18 -4 -22 -6 -3 -8 -12 -5 -20 3 -8 -1 -17 -8 -20 -12 -5
-28 -39 -23 -47 4 -6 -29 -35 -35 -31 -3 2 -4 -5 -1 -16 3 -13 0 -20 -8 -20
-11 0 -11 -2 1 -10 13 -8 13 -10 -2 -10 -11 0 -15 -5 -12 -15 4 -8 -1 -17 -10
-21 -9 -3 -13 -10 -10 -15 3 -5 -2 -12 -11 -15 -12 -5 -13 -9 -4 -21 10 -11 9
-13 -2 -11 -9 2 -14 -5 -13 -19 0 -12 -4 -21 -10 -20 -6 1 -10 -4 -8 -10 1 -7
-3 -13 -9 -13 -5 0 -7 -5 -4 -10 3 -6 0 -13 -8 -16 -8 -3 -14 -13 -13 -22 2
-9 -6 -25 -16 -34 -11 -9 -19 -19 -19 -22 3 -24 0 -36 -8 -32 -5 3 -11 -1 -14
-9 -4 -10 -1 -12 11 -9 9 3 6 -1 -7 -9 -16 -10 -20 -16 -12 -22 9 -5 7 -13 -8
-29 -12 -12 -18 -26 -14 -30 5 -4 1 -6 -7 -4 -11 2 -15 -5 -14 -24 1 -19 -3
-25 -14 -20 -10 3 -13 1 -8 -6 4 -7 2 -12 -3 -12 -6 0 -11 -5 -11 -11 0 -5 6
-7 13 -4 6 4 4 0 -6 -8 -10 -9 -20 -24 -22 -34 -1 -10 -8 -17 -16 -15 -9 2 -9
-1 2 -14 9 -12 9 -15 1 -10 -7 4 -12 1 -12 -8 0 -9 -5 -16 -11 -16 -5 0 -8 -4
-4 -9 3 -6 -3 -14 -12 -20 -14 -8 -15 -10 -3 -11 12 0 12 -2 2 -9 -8 -4 -14
-12 -15 -17 -1 -5 -6 -8 -11 -6 -5 2 -6 -4 -3 -12 4 -9 -1 -22 -10 -31 -8 -9
-16 -26 -17 -40 0 -13 -5 -23 -11 -22 -5 1 -10 -5 -10 -13 0 -8 -8 -23 -18
-33 -10 -10 -16 -25 -13 -33 3 -8 1 -14 -4 -14 -6 0 -10 -7 -10 -15 0 -8 -5
-15 -11 -15 -6 0 -9 -6 -6 -14 3 -8 -1 -17 -9 -20 -9 -3 -12 -10 -9 -16 3 -5
1 -10 -6 -10 -7 0 -9 -3 -6 -7 4 -3 -1 -12 -11 -20 -9 -8 -11 -12 -4 -8 19 10
14 -2 -10 -26 -13 -12 -17 -19 -10 -15 10 6 10 2 1 -18 -7 -14 -16 -23 -20
-20 -5 3 -6 -3 -2 -12 4 -10 2 -15 -3 -11 -6 3 -11 -4 -11 -16 -1 -12 -8 -26
-15 -32 -8 -5 -13 -20 -12 -32 1 -15 -3 -20 -14 -15 -10 3 -13 1 -8 -6 3 -6 2
-13 -4 -17 -6 -4 -8 -10 -5 -15 3 -4 -2 -10 -10 -14 -8 -3 -15 -17 -15 -31 0
-14 -5 -25 -11 -25 -5 0 -7 -4 -4 -10 3 -5 1 -10 -5 -10 -7 0 -9 -7 -6 -16 3
-8 2 -13 -2 -10 -4 3 -14 -4 -21 -16 -10 -16 -10 -19 1 -13 7 3 5 0 -4 -8 -10
-8 -15 -17 -11 -20 3 -4 1 -13 -5 -20 -7 -8 -8 -18 -4 -22 4 -5 2 -5 -5 -1
-14 7 -36 -27 -25 -39 4 -3 -1 -13 -11 -20 -10 -7 -18 -16 -18 -19 3 -21 -1
-26 -11 -20 -8 5 -8 2 1 -10 12 -15 12 -17 0 -14 -8 2 -13 -3 -12 -9 2 -7 -1
-13 -6 -13 -5 0 -12 -7 -15 -16 -5 -12 -3 -14 7 -8 7 5 6 2 -3 -6 -9 -9 -14
-22 -12 -29 3 -8 0 -11 -7 -7 -6 4 -11 1 -11 -7 0 -8 -7 -20 -15 -27 -8 -7
-15 -17 -15 -23 0 -6 7 -2 16 9 14 18 15 18 4 -3 -6 -13 -16 -23 -21 -23 -6 0
-9 -7 -5 -15 3 -8 0 -14 -7 -12 -7 1 -13 -5 -13 -13 -1 -8 -2 -21 -3 -28 -1
-8 -6 -10 -13 -6 -8 5 -7 0 2 -11 8 -10 10 -16 3 -12 -6 4 -14 3 -18 -3 -3 -5
1 -10 9 -10 9 0 16 -7 16 -16 0 -8 -4 -12 -10 -9 -17 10 -11 -7 7 -22 17 -14
17 -14 -2 -9 -18 5 -18 5 -4 -6 9 -7 14 -19 11 -27 -3 -10 0 -11 9 -5 12 7 12
5 0 -9 -12 -15 -11 -17 3 -17 10 0 16 -6 14 -15 -3 -17 71 -87 83 -79 5 3 6
-2 3 -10 -5 -12 1 -16 22 -16 23 0 26 -2 14 -10 -16 -10 -15 -11 29 -14 8 -1
18 -10 22 -21 4 -11 8 -14 8 -6 1 10 6 9 18 -5 17 -18 35 -26 60 -27 8 0 9 -4
3 -11 -6 -8 -1 -11 18 -10 15 0 33 -5 40 -13 8 -7 18 -11 23 -8 5 4 9 1 9 -5
0 -6 5 -8 10 -5 5 3 10 0 10 -7 0 -9 3 -9 10 2 8 12 10 12 10 -5 0 -15 2 -17
9 -6 6 9 10 9 12 2 2 -6 16 -12 31 -13 15 -1 24 -6 22 -10 -3 -4 4 -8 15 -8
11 0 23 -4 26 -10 9 -15 37 -12 30 3 -4 6 -1 5 7 -4 7 -9 21 -15 31 -13 9 1
17 -1 17 -6 0 -4 7 -11 16 -14 8 -3 12 -2 9 4 -3 6 1 7 9 4 9 -3 16 -11 16
-18 0 -6 5 -4 11 4 8 11 12 12 16 3 2 -7 13 -13 23 -13 10 0 22 -5 25 -10 4
-7 13 -6 27 1 15 8 19 8 14 0 -7 -10 19 -16 53 -12 7 2 11 -2 7 -7 -3 -5 1 -9
9 -9 8 0 12 3 10 7 -2 4 2 7 10 7 8 0 12 -4 9 -9 -5 -8 8 -12 38 -9 9 1 19 -3
23 -9 5 -8 11 -8 21 1 11 9 14 9 14 0 0 -7 4 -10 9 -6 5 3 17 -2 25 -11 9 -8
16 -12 16 -7 0 5 9 9 20 9 11 0 20 -4 20 -8 0 -4 9 -5 20 -3 11 2 22 0 25 -6
4 -5 12 -9 18 -9 7 0 6 4 -3 10 -12 7 -10 9 7 8 11 -1 19 -7 17 -13 -2 -5 7
-11 21 -11 24 -2 25 -1 8 13 -16 13 -15 13 7 1 14 -7 36 -13 50 -14 14 -1 27
-3 30 -4 3 -1 13 -1 24 0 10 1 23 -4 27 -12 7 -10 9 -10 9 0 0 6 5 12 11 12 5
0 7 -6 3 -12 -6 -10 -4 -10 6 -1 11 10 19 8 39 -10 13 -12 21 -17 17 -10 -3 6
-2 14 4 18 5 3 10 0 11 -7 0 -7 4 -4 9 7 6 15 9 16 9 4 1 -13 11 -16 53 -13
34 2 47 0 38 -6 -10 -6 -6 -8 15 -5 17 2 32 4 35 5 18 7 38 3 54 -10 11 -9 16
-10 12 -2 -10 17 4 15 25 -4 13 -12 19 -12 25 -3 4 8 3 10 -4 5 -7 -4 -12 -2
-12 3 0 15 16 14 32 -2 14 -15 45 -16 66 -3 6 4 12 4 12 -1 0 -4 11 -8 25 -8
14 0 25 4 25 9 0 5 8 2 17 -5 15 -12 16 -12 8 1 -8 13 -7 13 8 1 10 -8 20 -11
24 -8 3 4 13 1 21 -6 11 -8 14 -8 9 0 -4 6 -3 14 3 18 5 3 10 1 10 -5 0 -7 8
-9 21 -5 16 6 20 4 13 -6 -6 -11 -5 -12 7 -2 22 18 54 19 74 3 11 -8 16 -10
12 -4 -8 15 25 13 35 -1 5 -6 8 -6 8 2 0 6 9 9 22 5 16 -4 19 -2 13 9 -7 11
-6 12 6 3 8 -6 35 -11 61 -10 25 0 44 -2 42 -6 -2 -3 4 -5 13 -3 10 1 24 -3
32 -9 11 -8 13 -8 8 0 -9 16 28 25 42 11 8 -8 11 -8 11 1 0 6 7 9 15 6 9 -4
15 0 16 7 0 8 4 5 9 -6 5 -11 9 -14 9 -8 1 9 8 10 26 3 16 -6 27 -6 31 2 5 7
3 8 -6 3 -9 -6 -11 -4 -6 4 6 9 12 9 24 -3 12 -10 22 -12 35 -5 9 6 22 7 27 4
6 -3 10 0 10 7 0 9 3 10 8 2 4 -6 16 -9 27 -7 23 5 30 5 65 0 14 -2 31 1 38 6
7 6 12 6 12 0 0 -5 9 -9 20 -9 11 0 20 5 20 10 0 6 4 6 11 -1 6 -6 20 -8 31
-5 15 4 17 7 6 14 -9 7 -7 8 7 3 11 -4 25 -7 30 -6 32 3 52 8 62 14 6 4 14 3
18 -3 4 -7 12 -7 26 0 13 8 19 7 19 0 0 -7 7 -8 18 -2 9 4 34 7 54 6 22 0 35
3 31 8 -3 6 4 5 15 -1 16 -8 21 -7 26 6 6 14 8 14 25 -1 16 -14 20 -15 30 -2
7 8 23 13 37 10 14 -3 23 -1 21 3 -3 4 18 7 46 6 31 -1 55 3 59 10 6 9 8 8 8
-2 0 -11 3 -11 15 -1 8 7 15 9 15 5 0 -5 8 -1 18 8 10 10 22 14 26 10 12 -12
36 -12 36 0 0 7 5 5 10 -3 9 -13 10 -13 10 0 0 13 1 13 10 0 8 -12 10 -12 10
-1 0 10 3 11 14 2 11 -9 16 -9 21 -1 4 7 16 9 27 7 14 -4 17 -2 9 7 -8 9 -3
12 17 12 62 1 73 4 66 17 -4 6 3 3 15 -7 18 -17 21 -17 15 -3 -7 20 6 23 24 5
9 -9 13 -8 17 4 4 9 16 14 32 12 31 -3 55 5 48 17 -3 4 4 6 17 4 12 -3 26 1
30 8 5 8 11 8 16 2 4 -5 13 -11 21 -13 12 -3 12 0 2 12 -11 13 -10 15 8 11 12
-2 21 0 21 4 0 4 12 7 28 7 15 -1 35 5 44 13 14 11 20 11 33 1 13 -11 14 -10
9 5 -5 13 -4 16 4 11 7 -4 12 -2 12 3 0 6 5 11 11 11 5 0 7 -6 4 -13 -4 -6 -1
-5 7 3 7 9 20 14 30 12 9 -2 20 2 24 9 5 8 3 9 -6 4 -9 -6 -11 -4 -5 4 5 9 10
10 18 2 8 -8 18 -4 36 12 13 12 21 16 17 10 -4 -7 -3 -13 2 -13 6 0 13 7 16
16 3 9 12 14 20 11 17 -7 68 27 59 38 -5 5 1 3 11 -5 18 -14 19 -13 13 4 -6
16 -5 17 7 7 11 -9 16 -9 22 0 5 8 3 10 -7 4 -10 -6 -11 -5 -3 4 6 7 21 13 33
14 14 1 20 6 16 16 -5 11 -3 12 10 1 13 -11 14 -10 9 4 -4 12 0 16 16 16 11 0
18 4 15 10 -3 5 -1 11 4 11 6 1 17 2 24 3 6 1 11 8 9 15 -1 7 7 15 18 18 18 5
25 21 21 46 -1 5 3 6 9 2 5 -3 10 -1 10 5 0 6 4 8 10 5 6 -4 7 1 3 11 -5 13
-3 15 8 9 12 -8 12 -6 0 8 -11 14 -11 18 3 23 9 3 16 10 16 16 0 5 -6 6 -12 2
-7 -4 -10 -4 -6 1 4 4 3 14 -4 22 -6 8 -7 13 -2 12 5 -1 16 -1 24 0 13 1 13 3
1 10 -8 5 -16 17 -17 25 -1 9 2 14 6 11 5 -3 11 -1 15 5 3 5 -1 10 -10 10 -9
0 -13 5 -10 10 3 6 2 10 -4 10 -5 0 -8 9 -6 20 2 11 0 18 -6 15 -5 -4 -12 7
-15 24 -4 17 -14 33 -25 36 -11 4 -19 11 -19 16 0 6 5 7 10 4 6 -3 10 -1 10 4
0 6 -4 11 -10 11 -5 0 -10 7 -10 15 0 8 -4 15 -10 15 -5 0 -10 9 -10 21 0 13
-4 18 -12 13 -7 -4 -10 -4 -6 1 4 4 2 15 -5 23 -10 13 -9 15 3 8 9 -4 8 -1 -2
7 -10 8 -18 24 -18 37 0 15 -4 20 -14 17 -11 -4 -13 -1 -9 10 4 11 2 14 -5 9
-16 -9 -15 7 0 22 9 9 8 12 -4 12 -9 0 -20 5 -24 12 -5 7 -3 8 7 3 8 -5 5 2
-6 15 -13 15 -15 21 -5 16 8 -4 7 -1 -3 7 -10 8 -19 24 -20 35 0 11 -6 18 -13
15 -8 -3 -11 2 -7 16 3 12 1 21 -3 21 -5 0 -15 9 -22 21 -11 17 -11 20 0 13
10 -6 11 -5 1 8 -7 8 -10 18 -6 22 4 4 -1 4 -11 0 -16 -6 -18 -4 -14 14 4 14
-1 31 -14 47 -10 14 -16 30 -12 37 5 8 2 9 -10 5 -9 -4 -14 -3 -11 2 3 5 0 13
-6 16 -5 4 -8 13 -5 20 2 7 -2 16 -11 19 -8 4 -13 13 -9 21 3 9 0 15 -8 15 -7
0 -13 7 -14 15 -1 8 -3 22 -4 30 -1 8 -7 15 -14 15 -8 0 -11 6 -8 15 4 8 1 15
-6 15 -6 0 -8 5 -5 10 3 5 -2 10 -12 10 -14 0 -15 2 -4 9 11 7 9 14 -13 35
-29 30 -35 45 -8 25 9 -7 6 -1 -7 14 -14 15 -22 30 -18 33 3 3 -5 16 -17 28
-13 11 -21 26 -19 32 2 7 -4 20 -14 30 -10 9 -17 19 -15 21 5 7 1 33 -5 32
-20 -3 -27 2 -14 10 11 7 9 13 -8 30 -13 13 -18 27 -14 37 4 12 3 15 -5 10 -7
-4 -12 -1 -12 8 0 9 -5 16 -11 16 -5 0 -8 4 -4 9 3 5 -1 16 -9 24 -8 8 -12 17
-9 21 4 3 1 6 -6 6 -7 0 -9 5 -6 10 3 6 1 10 -4 10 -6 0 -11 9 -11 20 0 11 -5
20 -11 20 -5 0 -8 4 -4 9 3 6 -5 20 -17 32 -13 12 -17 19 -10 14 8 -4 5 9 -8
34 -12 24 -25 39 -31 35 -7 -4 -9 1 -4 15 4 14 2 21 -6 21 -7 0 -10 3 -6 6 3
4 0 13 -8 21 -8 8 -15 23 -15 33 0 10 -5 22 -11 25 -6 4 -8 13 -5 21 3 9 0 11
-12 7 -9 -3 -14 -3 -10 2 4 4 0 14 -10 22 -9 8 -11 12 -4 8 18 -9 15 9 -8 37
-10 14 -16 28 -13 32 3 3 -2 6 -13 6 -16 0 -17 2 -4 10 12 7 12 10 1 10 -8 0
-11 6 -7 16 4 10 0 18 -13 21 -13 3 -18 12 -16 29 2 18 -2 24 -12 20 -8 -3
-11 -2 -8 3 3 5 0 13 -6 16 -5 4 -8 13 -5 21 3 8 -1 14 -10 14 -11 0 -13 6 -9
20 5 14 2 20 -9 20 -9 0 -15 3 -15 8 1 4 1 18 0 32 -1 20 -3 22 -11 10 -8 -12
-10 -10 -10 9 0 13 -8 30 -17 38 -11 9 -12 11 -3 7 10 -5 9 -1 -3 14 -11 11
-16 25 -13 31 4 5 -2 16 -11 23 -10 7 -18 20 -18 28 0 8 -5 14 -12 13 -7 -2
-10 4 -7 12 7 17 -20 47 -32 37 -5 -4 -2 1 5 11 9 11 10 17 2 17 -6 0 -11 9
-11 20 0 11 -7 23 -15 26 -8 4 -12 10 -9 15 3 5 0 9 -6 9 -6 0 -9 4 -6 9 3 5
-1 14 -9 21 -8 7 -15 23 -15 37 0 14 -4 21 -10 18 -5 -3 -10 2 -10 13 0 10 -8
27 -18 38 -10 11 -18 30 -17 42 1 12 -4 22 -12 22 -12 0 -17 13 -14 33 0 4 -3
7 -9 7 -6 0 -9 3 -9 8 4 21 -2 32 -13 26 -7 -4 -10 -4 -6 1 4 4 -2 23 -13 42
-11 18 -18 33 -14 33 3 0 -1 7 -9 16 -9 8 -14 20 -11 25 4 5 1 9 -6 9 -7 0 -9
3 -6 7 4 3 -1 12 -11 20 -10 9 -11 11 -2 7 12 -7 13 -5 3 8 -7 8 -10 18 -7 21
4 4 -2 5 -13 3 -12 -3 -20 1 -20 9 0 8 5 11 10 8 6 -4 8 1 4 11 -4 10 -7 20
-7 22 0 3 -4 2 -10 -1 -6 -4 -10 7 -10 25 0 17 -4 29 -9 26 -5 -3 -15 2 -22
11 -8 9 -9 14 -4 11 6 -4 11 2 11 13 0 10 -6 19 -14 19 -8 0 -10 -5 -6 -12 4
-7 3 -9 -1 -5 -14 12 -15 38 -2 30 7 -3 2 5 -10 19 -13 13 -23 34 -23 47 0 12
-4 19 -10 16 -5 -3 -10 1 -10 10 0 10 -5 13 -12 9 -9 -5 -9 -2 1 9 12 15 11
17 -3 17 -10 0 -14 5 -11 10 3 6 1 10 -6 10 -6 0 -9 8 -6 20 3 11 2 20 -1 20
-4 0 -15 12 -25 25 -17 24 -17 24 0 19 13 -5 12 -2 -4 10 -12 9 -20 23 -17 30
3 8 -4 20 -15 28 -12 8 -19 17 -16 20 3 3 -4 13 -14 22 -11 10 -17 24 -14 32
3 8 1 14 -4 14 -5 0 -10 10 -10 22 -1 13 -10 28 -19 35 -9 6 -13 16 -10 22 4
5 2 12 -4 16 -6 4 -8 11 -5 16 4 5 -2 6 -11 2 -13 -5 -16 -3 -11 10 4 10 1 17
-6 17 -8 0 -6 4 3 10 13 8 13 10 -1 10 -9 0 -20 7 -23 16 -3 8 -2 12 4 9 6 -3
7 1 4 9 -3 9 -10 13 -15 10 -8 -5 -13 9 -10 29 0 4 -3 7 -9 7 -5 0 -10 6 -10
14 0 8 -6 17 -12 19 -10 4 -10 6 0 6 18 1 -8 41 -28 41 -12 0 -12 2 -1 9 9 6
10 11 2 15 -6 4 -8 12 -5 18 5 8 1 9 -10 5 -14 -6 -16 -3 -11 13 4 12 2 20 -5
20 -6 0 -8 5 -5 10 3 6 -2 10 -12 11 -12 0 -13 2 -5 6 10 4 7 12 -10 31 -13
14 -17 22 -11 18 9 -5 11 -2 7 8 -3 9 -10 13 -15 10 -5 -3 -6 3 -2 12 5 14 3
16 -11 11 -10 -4 -15 -3 -11 4 4 5 1 17 -7 26 -9 12 -9 15 -1 9 9 -5 11 -2 7
8 -3 8 -12 17 -20 20 -7 3 -11 12 -8 21 4 10 0 15 -12 16 -11 0 -14 3 -7 6 10
3 9 8 -2 20 -8 8 -12 19 -9 25 4 6 3 8 -2 5 -6 -3 -16 3 -23 15 -7 11 -8 17
-2 14 5 -4 13 -1 17 5 4 7 3 10 -2 6 -5 -3 -18 2 -29 10 -19 15 -19 15 -1 9
20 -7 20 -7 0 16 -10 12 -25 29 -32 36 -7 7 -9 18 -6 24 4 6 2 8 -3 5 -11 -7
-47 26 -38 35 3 2 -2 5 -10 5 -8 0 -12 -5 -9 -11 3 -6 -1 -3 -9 6 -8 10 -18
14 -22 10 -5 -4 -5 1 -2 11 7 18 2 23 -7 9z m-2261 -4400 c-3 -3 -11 0 -18 7
-9 10 -8 11 6 5 10 -3 15 -9 12 -12z m3455 -376 c0 -3 -4 -8 -10 -11 -5 -3
-10 -1 -10 4 0 6 5 11 10 11 6 0 10 -2 10 -4z m-1216 -94 c3 -5 -1 -9 -9 -9
-8 0 -12 4 -9 9 3 4 7 8 9 8 2 0 6 -4 9 -8z"/>
<path d="M4145 4660 c-4 -6 -11 -7 -17 -4 -6 4 -8 2 -4 -4 3 -5 3 -12 -1 -15
-5 -2 -2 -2 5 -1 6 2 12 -1 12 -6 0 -6 -5 -10 -12 -10 -6 0 -3 -7 8 -16 10 -8
14 -13 8 -10 -7 3 -14 -3 -17 -14 -3 -11 -1 -18 3 -15 5 3 11 1 15 -5 3 -5 -1
-10 -9 -10 -8 0 -18 -5 -21 -10 -4 -6 -3 -10 2 -9 22 4 24 -3 8 -27 -17 -26
-11 -43 20 -66 6 -5 3 -8 -7 -8 -9 0 -20 -5 -24 -12 -4 -7 -3 -8 4 -4 16 10
15 -7 0 -23 -8 -9 -8 -11 -2 -8 12 7 29 -21 19 -31 -3 -3 -5 0 -5 6 0 7 -4 12
-10 12 -5 0 -8 -13 -6 -29 2 -20 -2 -32 -13 -36 -13 -5 -14 -7 -1 -15 13 -8
13 -10 -1 -10 -22 0 -31 -24 -16 -40 10 -10 8 -12 -6 -6 -12 4 -17 2 -15 -6 3
-7 -6 -23 -19 -36 -13 -13 -20 -28 -17 -34 5 -7 1 -9 -9 -5 -12 4 -17 1 -17
-9 0 -10 -6 -14 -14 -11 -10 4 -13 1 -10 -8 4 -10 0 -13 -16 -10 -19 4 -20 2
-8 -12 9 -12 9 -15 1 -9 -8 4 -13 2 -13 -4 0 -6 -4 -9 -9 -6 -5 4 -22 0 -38
-8 -80 -40 -103 -46 -121 -33 -9 7 -11 5 -5 -9 6 -16 4 -17 -8 -7 -9 7 -20 8
-29 3 -8 -5 -17 -7 -20 -5 -4 2 -18 6 -33 9 -20 3 -27 1 -27 -12 0 -13 -3 -13
-16 4 -8 10 -13 13 -9 7 3 -7 3 -13 -2 -14 -4 0 -16 -2 -25 -4 -10 -2 -21 2
-25 7 -3 7 -1 8 5 4 8 -5 10 -1 5 10 -4 11 -8 13 -11 6 -2 -7 -10 -12 -18 -12
-9 0 -12 -5 -8 -12 4 -7 -1 -5 -12 4 -23 20 -48 10 -38 -15 4 -11 1 -17 -7
-17 -11 0 -11 -3 1 -10 11 -7 11 -10 2 -10 -23 0 -2 -20 21 -20 18 0 20 -2 7
-11 -12 -9 -12 -10 3 -5 10 3 21 6 23 6 3 0 2 6 -2 13 -5 7 0 6 11 -3 10 -8
16 -10 12 -3 -4 6 -2 15 4 19 8 4 9 3 5 -4 -4 -7 -2 -12 4 -12 6 0 9 -4 6 -8
-5 -9 32 -8 56 3 9 4 23 3 30 -1 19 -12 39 -14 32 -3 -3 5 -9 7 -13 5 -4 -3
-8 1 -8 8 0 10 8 9 31 -5 22 -13 33 -15 43 -7 9 8 13 7 13 -2 0 -10 3 -10 14
-1 11 9 16 9 22 0 5 -8 3 -9 -6 -4 -9 5 -11 4 -6 -4 6 -9 11 -9 22 0 11 9 14
8 14 -2 0 -11 2 -11 10 1 8 13 10 12 10 -4 0 -16 2 -17 17 -5 9 8 14 9 10 3
-3 -6 5 -16 19 -23 14 -6 22 -16 19 -21 -3 -6 -1 -10 4 -10 6 0 11 5 11 10 0
6 5 10 11 10 5 0 8 -4 5 -8 -3 -5 6 -15 19 -22 14 -7 25 -17 25 -22 0 -4 7 -8
16 -8 8 0 12 -4 9 -10 -3 -5 -1 -10 5 -10 6 0 9 -3 7 -7 -5 -8 18 -34 24 -29
2 1 12 -6 22 -17 19 -19 18 -19 -3 -12 -20 6 -21 5 -9 -8 8 -8 17 -13 22 -10
4 2 7 -5 7 -17 0 -13 4 -19 12 -14 7 4 8 3 4 -4 -4 -6 -2 -21 4 -32 8 -15 8
-20 -2 -20 -8 0 -5 -5 5 -11 14 -8 16 -14 6 -25 -9 -11 -8 -14 7 -14 17 0 17
-1 -1 -13 -14 -11 -15 -16 -5 -22 9 -5 11 -4 6 3 -4 7 -3 12 2 12 5 0 8 -16 8
-35 -1 -31 -3 -33 -13 -18 -7 9 -13 13 -13 7 1 -13 26 -45 32 -39 2 3 5 -1 5
-9 0 -9 -7 -12 -16 -8 -9 3 -13 2 -9 -3 4 -4 3 -16 -2 -26 -7 -12 -6 -20 2
-25 6 -4 8 -3 5 2 -3 6 -1 16 4 24 6 10 7 2 4 -24 -2 -21 -7 -41 -9 -43 -3 -3
-1 -16 4 -29 7 -18 5 -26 -8 -33 -11 -7 -12 -11 -4 -11 7 0 11 -4 7 -9 -3 -5
0 -13 6 -17 8 -4 9 -3 5 4 -4 7 -2 12 3 12 6 0 11 -6 11 -14 0 -17 32 -26 53
-15 11 7 13 17 7 44 -5 22 -4 37 3 42 6 4 7 1 2 -7 -5 -8 -4 -11 3 -6 15 9 3
38 -12 29 -6 -3 -3 3 7 14 12 14 15 23 7 28 -6 4 -9 23 -8 43 2 27 -1 36 -10
34 -8 -1 -11 2 -7 8 3 6 11 7 17 4 6 -4 8 1 3 16 -6 17 -4 21 6 14 12 -6 12
-5 0 9 -10 13 -11 20 -2 31 8 10 9 16 2 21 -7 4 -4 20 10 47 13 25 15 37 7 32
-10 -6 -11 -5 -1 8 7 8 10 18 6 21 -3 4 2 10 11 13 14 5 15 9 4 15 -10 7 -9 9
5 9 10 0 16 4 13 9 -4 5 9 24 26 42 18 18 27 29 19 24 -10 -6 -12 -4 -7 4 5 7
14 10 21 7 9 -3 12 2 10 14 -3 14 1 18 15 15 14 -3 17 1 13 12 -4 11 -2 14 5
9 7 -4 12 -2 12 4 0 6 5 8 10 5 6 -3 10 -1 10 5 0 6 5 8 10 5 6 -3 10 2 10 12
0 14 2 15 9 5 7 -11 9 -11 14 2 3 8 16 20 28 26 15 8 19 9 15 1 -4 -6 -3 -11
3 -11 5 0 12 4 16 10 3 5 12 7 20 4 9 -4 18 1 21 11 5 13 9 14 15 4 8 -14 39
-21 39 -9 0 13 29 20 36 8 4 -7 3 -8 -4 -4 -7 4 -12 2 -12 -3 0 -13 17 -14 24
-2 3 5 17 11 31 13 22 5 23 3 13 -10 -11 -13 -10 -14 8 -4 12 6 38 10 58 8 20
-1 39 0 41 4 3 5 25 5 68 1 5 -1 5 -6 1 -13 -4 -7 -3 -8 5 -4 6 4 9 12 6 17
-4 5 -2 9 4 9 5 0 7 16 5 37 -5 40 -14 58 -14 28 0 -18 -1 -18 -16 1 -14 17
-15 17 -10 1 5 -16 4 -17 -15 -4 -23 16 -63 11 -52 -7 3 -6 -3 -3 -14 7 -15
13 -22 15 -25 6 -2 -7 -14 -13 -26 -14 -11 -1 -20 1 -18 4 2 3 -3 13 -12 21
-14 13 -15 12 -9 -3 8 -22 -9 -32 -18 -9 -7 16 -8 15 -15 -3 -5 -11 -9 -14 -9
-7 -1 13 -46 17 -54 5 -2 -5 -2 -3 -1 4 2 7 -1 15 -6 18 -6 4 -10 2 -10 -4 0
-5 -9 -9 -20 -8 -11 1 -20 5 -20 10 0 5 -8 3 -17 -4 -11 -10 -14 -10 -9 -1 6
11 -5 17 -26 13 -5 0 -8 4 -8 10 0 5 -4 7 -10 4 -5 -3 -10 -1 -10 5 0 6 -4 8
-10 5 -5 -3 -10 -2 -10 3 0 9 -37 25 -53 23 -4 -1 -6 3 -5 8 4 11 -41 51 -56
51 -6 0 -5 4 3 9 11 7 9 10 -8 16 -12 3 -19 10 -16 15 3 4 -2 11 -11 14 -9 3
-14 12 -11 19 2 6 -8 28 -23 47 -36 47 -46 65 -32 56 8 -5 11 0 9 13 -2 11 -5
23 -8 25 -3 3 -4 39 -3 80 1 53 -2 74 -10 69 -6 -4 -3 3 7 14 13 15 15 23 7
28 -7 4 -9 19 -4 38 6 30 6 31 -12 17 -12 -9 -10 -4 5 12 20 23 21 26 5 24
-11 -2 -22 2 -26 7 -4 7 -12 6 -24 -4 -11 -9 -15 -9 -10 -1 4 6 5 12 2 12 -3
0 -8 -5 -11 -10z m-8 -174 c-3 -8 -1 -17 6 -20 9 -3 9 -5 0 -5 -15 -1 -26 16
-18 29 9 15 18 12 12 -4z m31 -253 c-2 -10 3 -18 12 -18 8 -1 14 -6 13 -13 -4
-16 14 -16 21 1 3 6 3 -3 0 -21 -3 -22 -1 -31 6 -27 5 3 10 1 10 -5 0 -7 7
-10 15 -6 8 3 14 2 14 -2 -3 -19 14 -51 24 -45 6 4 8 0 4 -11 -4 -9 -3 -15 1
-12 12 7 45 -22 37 -34 -3 -6 -3 -10 2 -9 29 5 55 -2 50 -14 -4 -10 2 -13 19
-9 20 4 23 1 17 -13 -5 -14 -3 -16 7 -10 9 6 11 4 6 -4 -5 -7 -14 -10 -22 -7
-8 3 -13 0 -11 -7 1 -7 -4 -11 -10 -10 -7 2 -13 -2 -13 -8 0 -5 -5 -7 -12 -3
-7 5 -9 2 -5 -9 4 -11 1 -15 -12 -12 -18 3 -54 -29 -44 -39 4 -3 -3 -6 -15 -6
-14 0 -20 -5 -16 -14 3 -9 -3 -17 -17 -21 -17 -6 -19 -9 -8 -16 11 -7 10 -9
-3 -9 -11 0 -18 -8 -18 -20 0 -11 -6 -20 -13 -20 -7 0 -18 -9 -24 -20 -11 -17
-10 -19 5 -14 13 5 14 4 3 -4 -26 -19 -47 -1 -42 37 2 8 -2 10 -10 5 -9 -5
-10 -2 -6 10 4 9 3 15 -2 12 -8 -6 -23 17 -25 39 -1 6 -9 9 -19 7 -10 -2 -16
3 -15 10 2 7 -2 12 -9 11 -7 -2 -10 6 -8 18 3 16 1 18 -9 10 -10 -9 -17 -7
-27 6 -13 17 -13 17 6 3 19 -14 19 -14 6 3 -7 9 -19 17 -26 17 -8 0 -15 5 -17
10 -2 6 -13 12 -25 13 -12 0 -19 5 -17 9 3 4 0 8 -5 8 -6 0 -11 5 -11 11 0 5
5 7 12 3 7 -4 8 -3 4 5 -6 9 -11 9 -22 0 -12 -10 -13 -9 -8 5 5 14 31 22 57
17 5 -1 6 3 3 8 -3 5 2 15 11 22 14 12 16 12 8 -1 -8 -13 -6 -13 8 -1 9 7 14
18 10 24 -3 5 -1 7 5 4 5 -4 30 12 54 34 23 23 36 38 28 33 -11 -6 -10 -4 2 7
9 9 14 19 11 23 -4 3 1 6 10 6 14 0 34 51 29 73 -1 4 3 7 8 7 6 0 10 -8 8 -17z
m32 3 c0 -2 -7 -7 -16 -10 -8 -3 -12 -2 -9 4 6 10 25 14 25 6z m624 -214 c3
-5 -1 -9 -9 -9 -8 0 -12 4 -9 9 3 4 7 8 9 8 2 0 6 -4 9 -8z m-614 -747 c0 -7
-30 -13 -34 -7 -3 4 4 9 15 9 10 1 19 0 19 -2z"/>
<path d="M4230 4321 c0 -6 4 -12 8 -15 5 -3 9 1 9 9 0 8 -4 15 -9 15 -4 0 -8
-4 -8 -9z"/>
<path d="M4470 3909 c0 -5 5 -7 10 -4 6 3 10 8 10 11 0 2 -4 4 -10 4 -5 0 -10
-5 -10 -11z"/>
<path d="M571 3312 c-19 -3 -21 -6 -10 -13 12 -7 12 -9 -1 -9 -9 0 -15 -9 -15
-24 0 -13 3 -22 8 -19 4 2 7 0 7 -6 0 -5 -5 -11 -11 -13 -8 -3 -6 -10 5 -21
14 -14 15 -17 3 -17 -12 0 -14 -9 -10 -40 4 -31 1 -46 -13 -63 -11 -12 -12
-16 -4 -10 13 10 16 8 16 -7 0 -10 -3 -18 -6 -18 -20 2 -31 -4 -27 -14 2 -7
-3 -19 -12 -26 -13 -11 -13 -12 -1 -7 8 4 6 -1 -5 -10 -11 -9 -19 -21 -17 -27
2 -6 -4 -8 -12 -5 -9 4 -16 -2 -20 -16 -5 -17 -8 -19 -15 -9 -6 11 -10 9 -14
-7 -3 -14 -13 -21 -30 -21 -14 0 -28 -4 -31 -8 -3 -5 -20 -10 -38 -11 -56 -4
-58 -4 -58 -15 0 -6 -4 -5 -9 3 -8 13 -12 13 -27 0 -11 -9 -15 -9 -10 -1 5 8
1 12 -13 12 -11 0 -23 -4 -26 -10 -3 -5 -12 -10 -18 -10 -7 0 -6 4 3 10 12 8
9 9 -10 8 -21 -2 -26 -7 -25 -28 0 -25 3 -27 40 -26 22 1 46 5 54 10 9 6 12 5
8 -1 -4 -6 4 -10 18 -10 16 0 22 4 18 11 -4 6 1 5 10 -2 9 -8 21 -11 27 -7 5
3 10 0 10 -7 0 -9 3 -9 10 2 8 12 10 12 10 -5 0 -17 2 -17 10 -5 6 9 10 10 10
3 0 -6 9 -10 20 -8 12 2 20 -2 20 -10 0 -7 7 -16 16 -19 22 -8 26 -8 19 4 -3
6 1 7 10 4 12 -5 13 -9 4 -20 -10 -12 -9 -13 5 -8 15 6 21 -6 17 -30 -1 -5 6
-3 15 5 12 9 15 9 10 2 -4 -8 -2 -13 4 -13 6 0 8 -4 5 -10 -3 -5 -1 -10 5 -10
6 0 8 -4 5 -10 -3 -5 1 -10 11 -10 11 0 15 -6 11 -20 -3 -11 0 -23 5 -27 7 -4
8 -1 3 7 -5 9 -4 11 4 6 9 -6 9 -11 0 -22 -7 -9 -8 -14 -1 -14 6 0 10 -20 9
-49 -1 -27 1 -47 6 -44 4 2 7 -1 7 -6 0 -6 -5 -11 -10 -11 -7 0 -7 -6 0 -20 8
-14 8 -20 0 -20 -6 0 -8 -5 -4 -12 5 -7 7 -29 5 -49 -2 -26 2 -38 14 -43 9 -3
13 -2 10 4 -3 6 -2 10 4 10 5 0 11 -6 13 -12 3 -7 7 -2 10 10 4 15 2 20 -5 15
-7 -3 -3 4 8 16 11 12 15 22 10 21 -22 -5 -27 1 -14 16 8 10 9 18 2 22 -12 8
-9 40 6 55 8 8 6 17 -7 31 -16 18 -16 19 1 13 11 -4 16 -3 12 3 -12 19 -15 59
-5 65 5 3 7 0 4 -8 -3 -8 -2 -17 3 -20 4 -3 9 13 9 36 1 29 8 45 25 59 13 11
18 16 10 12 -9 -5 -12 -3 -7 4 4 7 13 12 20 12 8 0 13 8 12 18 0 10 6 16 17
16 9 -1 17 2 17 8 0 5 6 6 13 2 8 -5 7 -2 -2 9 -12 15 -12 17 1 12 8 -3 21 1
28 10 10 12 16 13 28 3 10 -8 13 -9 9 -2 -4 7 0 15 9 18 8 3 12 2 9 -4 -3 -6
1 -7 9 -4 9 3 14 10 11 14 -3 5 7 6 22 3 16 -3 35 -5 43 -4 8 1 30 1 48 1 19
0 32 4 32 12 0 9 3 8 10 -2 8 -12 13 -13 30 -2 23 14 42 16 20 2 -13 -8 -13
-10 2 -10 26 0 32 19 12 41 -14 15 -20 17 -32 6 -12 -9 -14 -9 -9 0 6 9 -2 12
-27 11 -19 -1 -33 -4 -31 -8 5 -8 -24 -5 -48 5 -10 4 -23 2 -31 -4 -11 -9 -16
-9 -22 0 -5 8 -3 10 7 4 8 -5 11 -5 7 0 -4 4 -25 8 -47 9 -21 1 -45 7 -53 14
-8 6 -17 9 -21 6 -3 -3 -10 4 -17 15 -6 12 -18 21 -26 21 -8 0 -12 5 -9 10 3
6 0 10 -8 10 -8 0 -21 8 -28 18 -13 16 -12 16 6 3 11 -8 8 -2 -7 13 -16 15
-28 36 -28 46 0 11 -5 20 -12 20 -6 0 -8 3 -5 7 4 3 2 12 -4 19 -7 8 -6 14 2
20 8 5 9 3 4 -6 -5 -9 -4 -11 4 -6 8 6 9 12 2 20 -6 7 -7 17 -3 21 4 5 2 5 -5
1 -6 -3 -14 -2 -18 4 -3 5 -1 10 6 10 8 0 7 5 -2 17 -12 15 -12 16 5 10 16 -6
17 -5 6 8 -7 8 -9 15 -5 15 5 0 0 10 -11 22 -15 19 -16 20 -1 9 10 -8 17 -9
17 -3 0 6 -5 14 -10 17 -6 4 -7 12 -3 18 10 17 13 36 5 40 -4 2 -18 1 -31 -1z"/>
<path d="M1055 2880 c3 -5 8 -10 11 -10 2 0 4 5 4 10 0 6 -5 10 -11 10 -5 0
-7 -4 -4 -10z"/>
<path d="M935 2180 c-3 -5 -1 -10 4 -10 6 0 11 5 11 10 0 6 -2 10 -4 10 -3 0
-8 -4 -11 -10z"/>
<path d="M3611 144 c0 -11 3 -14 6 -6 3 7 2 16 -1 19 -3 4 -6 -2 -5 -13z"/>
<path d="M1835 90 c-3 -5 -1 -10 4 -10 6 0 11 5 11 10 0 6 -2 10 -4 10 -3 0
-8 -4 -11 -10z"/>
<path d="M3115 90 c-3 -5 -1 -10 4 -10 6 0 11 5 11 10 0 6 -2 10 -4 10 -3 0
-8 -4 -11 -10z"/>
<path d="M2255 70 c-3 -5 -1 -10 4 -10 6 0 11 5 11 10 0 6 -2 10 -4 10 -3 0
-8 -4 -11 -10z"/>
</g>
</svg>
