<svg xmlns="http://www.w3.org/2000/svg" width="1401.277" height="143.203" viewBox="0 0 1401.277 143.203">
    <defs>
        <style>
            .cls-1{fill:#fff032}
        </style>
    </defs>
    <path id="Bottom_Cheese" d="M1033.215 225.86v.118H721.6v-.118H349.963v.118H3.571v129.98a13 13 0 0 0 12.332 13.1 12.8 12.8 0 0 0 13.265-12.79v-40.9A15.887 15.887 0 0 1 44.4 299.373a15.674 15.674 0 0 1 16.115 15.668v6.947a17.357 17.357 0 0 0 16.643 17.475 17.126 17.126 0 0 0 17.606-17.119v-30.007a17.77 17.77 0 0 1 17.04-17.891 17.532 17.532 0 0 1 18.025 17.526v23.971a11.8 11.8 0 0 0 11.8 11.8h2.292a11.8 11.8 0 0 0 11.8-11.8v-51.888a13.265 13.265 0 0 1 12.579-13.366 13.061 13.061 0 0 1 13.538 13.052v75.186a11.664 11.664 0 0 0 11.066 11.752 11.484 11.484 0 0 0 11.9-11.476v-62.22a14.573 14.573 0 0 1 13.831-14.683 14.348 14.348 0 0 1 14.872 14.339v6.134a14.349 14.349 0 0 0 14.349 14.349h.328a14.349 14.349 0 0 0 14.349-14.349v-7.23a11.4 11.4 0 0 1 22.8 0v40.4a13.494 13.494 0 1 0 26.989 0v-20.6a13.93 13.93 0 0 1 27.86 0v3.757a17.513 17.513 0 0 0 35.025 0v-19.377l.356.024a15.886 15.886 0 0 1 15.233-15.994 15.674 15.674 0 0 1 16.115 15.668v6.947a17.357 17.357 0 0 0 16.643 17.475 17.125 17.125 0 0 0 17.606-17.119v.455a17.77 17.77 0 0 1 17.04-17.891 17.532 17.532 0 0 1 18.025 17.526v23.971a11.8 11.8 0 0 0 11.8 11.8h2.292a11.8 11.8 0 0 0 11.8-11.8V258.9a13.266 13.266 0 0 1 12.583-13.369 13.062 13.062 0 0 1 13.537 13.052v75.187a11.664 11.664 0 0 0 11.063 11.751 11.483 11.483 0 0 0 11.9-11.476v-62.22a14.573 14.573 0 0 1 13.825-14.683 14.348 14.348 0 0 1 14.875 14.339v6.134a14.349 14.349 0 0 0 14.349 14.349h.328a14.349 14.349 0 0 0 14.349-14.349v-7.23a11.4 11.4 0 0 1 22.8 0v40.4a13.494 13.494 0 0 0 13.494 13.495 13.494 13.494 0 0 0 13.494-13.495v-20.6a13.93 13.93 0 0 1 27.86 0l.253-.015v65.79a13 13 0 0 0 12.333 13.1 12.8 12.8 0 0 0 13.265-12.79v-40.9a15.887 15.887 0 0 1 15.234-15.994 15.674 15.674 0 0 1 16.115 15.668v6.947a17.357 17.357 0 0 0 16.643 17.475 17.126 17.126 0 0 0 17.606-17.119v-30.01a17.77 17.77 0 0 1 17.039-17.891 17.533 17.533 0 0 1 18.025 17.526v23.971a11.8 11.8 0 0 0 11.8 11.8h2.292a11.8 11.8 0 0 0 11.8-11.8v-51.888a13.266 13.266 0 0 1 12.585-13.366 13.062 13.062 0 0 1 13.538 13.052v75.186a11.663 11.663 0 0 0 11.065 11.752 11.484 11.484 0 0 0 11.9-11.476v-62.22a14.572 14.572 0 0 1 13.821-14.683 14.348 14.348 0 0 1 14.872 14.339v6.134a14.349 14.349 0 0 0 14.348 14.349h.329a14.349 14.349 0 0 0 14.348-14.349v-7.23a11.4 11.4 0 0 1 22.8 0v40.4a13.495 13.495 0 1 0 26.99 0v-20.6a13.93 13.93 0 0 1 27.86 0v3.757a17.512 17.512 0 0 0 35.025 0v-19.377l.356.024a15.886 15.886 0 0 1 15.233-15.994 15.675 15.675 0 0 1 16.115 15.668v6.947a17.357 17.357 0 0 0 16.643 17.475 17.125 17.125 0 0 0 17.606-17.119v.455a17.77 17.77 0 0 1 17.04-17.891 17.532 17.532 0 0 1 18.025 17.526v23.971a11.8 11.8 0 0 0 11.8 11.8h2.292a11.8 11.8 0 0 0 11.8-11.8V258.9a13.266 13.266 0 0 1 12.585-13.366 13.062 13.062 0 0 1 13.538 13.052v75.184a11.663 11.663 0 0 0 11.066 11.752 11.484 11.484 0 0 0 11.9-11.476v-62.22a14.573 14.573 0 0 1 13.825-14.683 14.349 14.349 0 0 1 14.872 14.339v6.134a14.348 14.348 0 0 0 14.348 14.349h.329a14.348 14.348 0 0 0 14.348-14.349v-7.23a11.4 11.4 0 0 1 22.8 0v40.4a13.5 13.5 0 0 0 13.495 13.495 13.494 13.494 0 0 0 13.494-13.495v-20.6a13.93 13.93 0 0 1 27.861 0v3.754a17.513 17.513 0 0 0 35.025 0v-68.08z" class="cls-1" data-name="Bottom Cheese" transform="rotate(180 702.424 184.532)"/>
</svg>
