<svg xmlns="http://www.w3.org/2000/svg" width="619.844" height="238.869" viewBox="0 0 619.844 238.869">
    <defs>
        <style>
            .cls-1,.cls-3{fill:#fff;stroke-width:.5px}.cls-1,.cls-2,.cls-3{stroke:#000}.cls-1{stroke-miterlimit:10}.cls-2{stroke-width:.909px}
        </style>
    </defs>
    <g id="Clouds_Left" data-name="Clouds Left" transform="translate(191.957 -27.818)">
        <g id="Group_10568" data-name="Group 10568" transform="translate(39.959 28.068)">
            <g id="Group_10562" data-name="Group 10562" transform="translate(0 4.726)">
                <path id="Path_4659" d="M396.425 478.177c-2.584-3-9.875-17.535-3.781-20.5 9.606-4.673 24.989 15.58 29.527 22-1.971-2.786-1.227-6.221 1.4-7.68s5.735.074 8.223 1.68a10.644 10.644 0 0 1 4.447 6.636c-2.519-1.29 3.308-11.06 15.765-4.931 6.93 3.41 7.632 8.994 19.024 10.672h-73.082" class="cls-1" data-name="Path 4659" transform="translate(-317.135 -445.25)"/>
                <path id="Path_4660" d="M608.649 474.7h-64.216l-22.988.108c-.586-.583 18.366-1.539 17.22-4.481-1.138-2.92-3.8-7.281-1.667-9.817 2.815-3.353 9.313-3.4 13.523-1.19s6.679 5.98 8.979 9.58c-3.075-6.325-6.2-12.906-5.65-19.683a16.967 16.967 0 0 1 14.191-15.1c9.82-1.528 18.636 5.272 23.451 12.325s9.6 12.161 15.638 20.385" class="cls-1" data-name="Path 4660" transform="translate(-521.431 -433.901)"/>
            </g>
            <ellipse id="Ellipse_154" cx="6.599" cy="5.309" class="cls-1" data-name="Ellipse 154" rx="6.599" ry="5.309" transform="translate(90.493)"/>
        </g>
        <g id="Group_10576" data-name="Group 10576" transform="translate(273.959 169.068)">
            <g id="Group_10562-2" data-name="Group 10562" transform="translate(0 4.726)">
                <path id="Path_4659-2" d="M396.425 478.177c-2.584-3-9.875-17.535-3.781-20.5 9.606-4.673 24.989 15.58 29.527 22-1.971-2.786-1.227-6.221 1.4-7.68s5.735.074 8.223 1.68a10.644 10.644 0 0 1 4.447 6.636c-2.519-1.29 3.308-11.06 15.765-4.931 6.93 3.41 7.632 8.994 19.024 10.672h-73.082" class="cls-1" data-name="Path 4659" transform="translate(-317.135 -445.25)"/>
                <path id="Path_4660-2" d="M608.649 474.7h-64.216l-22.988.108c-.586-.583 18.366-1.539 17.22-4.481-1.138-2.92-3.8-7.281-1.667-9.817 2.815-3.353 9.313-3.4 13.523-1.19s6.679 5.98 8.979 9.58c-3.075-6.325-6.2-12.906-5.65-19.683a16.967 16.967 0 0 1 14.191-15.1c9.82-1.528 18.636 5.272 23.451 12.325s9.6 12.161 15.638 20.385" class="cls-1" data-name="Path 4660" transform="translate(-521.431 -433.901)"/>
            </g>
            <ellipse id="Ellipse_154-2" cx="6.599" cy="5.309" class="cls-1" data-name="Ellipse 154" rx="6.599" ry="5.309" transform="translate(90.493)"/>
        </g>
        <g id="Group_10570" data-name="Group 10570" transform="translate(175.943 104.845)">
            <path id="Path_4661" d="M516.955 583.746v-9.637c-3.39-2.768-6.865-5.636-8.964-9.477s-1.807-12.509 2.873-16.63c4.9-4.316 18.423-1 24.2 2.054 16.6 8.782 21.993 12.614 38.2 24.139-2.663-1.7-5.417-3.493-7.072-6.186s-1.854-6.561.416-8.76c3.093-3 11.991-1.285 15.851.624 11.688 5.779 12.289 12.717 31.265 17.379v6.663" class="cls-1" data-name="Path 4661" transform="translate(-484.572 -545.936)"/>
            <path id="Path_4662" d="M642.666 606.043h-123.43c3.358-4.466 19.79-1.251 18.65-6.268-.759-3.339-2.835-6.7-1.057-9.63 2.195-3.615 7.478-4.228 11.326-2.474s6.733 6.833 14.306 10.762" class="cls-1" data-name="Path 4662" transform="translate(-519.236 -568.063)"/>
            <ellipse id="Ellipse_155" cx="5.394" cy="5.394" class="cls-1" data-name="Ellipse 155" rx="5.394" ry="5.394" transform="translate(0 9.31)"/>
            <ellipse id="Ellipse_156" cx="2.697" cy="2.697" class="cls-1" data-name="Ellipse 156" rx="2.697" ry="2.697" transform="translate(2.697 26.421)"/>
            <path id="Path_4663" d="M454.412 601.081c-2-1.146-4.09-2.373-5.288-4.344s-1.128-4.92.773-6.228c2.159-1.485 5.067-.129 7.308 1.227 9.138 5.528 10.19 12.924 29.651 16.009h-32.444" class="cls-1" data-name="Path 4663" transform="translate(-330.982 -569.764)"/>
        </g>
        <g id="Group_10575" data-name="Group 10575" transform="translate(-191.456 134.331)">
            <path id="Path_4661-2" d="M542.262 677.45v-33.522c-11.793-9.628-23.879-19.6-31.179-32.963s-6.285-43.511 9.993-57.844c17.05-15.012 64.081-3.477 84.161 7.146 57.737 30.545 76.5 43.876 132.861 83.963-9.264-5.919-18.842-12.151-24.6-21.515s-6.449-22.82 1.448-30.469c10.758-10.421 41.708-4.469 55.133 2.171 40.653 20.1 42.744 44.234 108.749 60.448v23.177" class="cls-1" data-name="Path 4661" transform="translate(-429.625 -545.936)"/>
            <path id="Path_4662-2" d="M948.559 653.915H519.236c11.68-15.533 68.836-4.351 64.869-21.8-2.64-11.615-9.861-23.312-3.678-33.494 7.634-12.573 26.01-14.705 39.4-8.605s23.419 23.767 49.761 37.435" class="cls-1" data-name="Path 4662" transform="translate(-519.236 -521.809)"/>
            <ellipse id="Ellipse_155-2" cx="18.762" cy="18.762" class="cls-1" data-name="Ellipse 155" rx="18.762" ry="18.762" transform="translate(0 32.383)"/>
            <ellipse id="Ellipse_156-2" cx="9.381" cy="9.381" class="cls-1" data-name="Ellipse 156" rx="9.381" ry="9.381" transform="translate(9.381 91.901)"/>
            <path id="Path_4663-2" d="M469.494 628.884c-6.966-3.987-14.226-8.253-18.394-15.111s-3.923-17.113 2.69-21.662c7.509-5.164 17.624-.45 25.421 4.267 31.783 19.227 35.445 44.953 103.136 55.683H469.494" class="cls-1" data-name="Path 4663" transform="translate(-40.171 -519.954)"/>
        </g>
        <path id="Path_4665" d="M123.88 585.854c-5.787.043-8.68.064-10.127 1.511s-1.447 4.319-1.447 10.063c0-5.726 0-8.6-1.433-10.049s-4.335-1.482-10.141-1.525c5.61 0 8.5 0 9.99-1.318 1.584-1.4 1.584-4.292 1.584-10.256 0 6.253 0 9.128 1.825 10.449 1.553 1.125 4.428 1.125 9.749 1.125z" class="cls-2" data-name="Path 4665" transform="translate(29.444 -440.428)"/>
        <path id="Path_4673" d="M123.88 585.854c-5.787.043-8.68.064-10.127 1.511s-1.447 4.319-1.447 10.063c0-5.726 0-8.6-1.433-10.049s-4.335-1.482-10.141-1.525c5.61 0 8.5 0 9.99-1.318 1.584-1.4 1.584-4.292 1.584-10.256 0 6.253 0 9.128 1.825 10.449 1.553 1.125 4.428 1.125 9.749 1.125z" class="cls-2" data-name="Path 4673" transform="translate(291.444 -419.428)"/>
        <path id="Path_4666" d="M279.233 597.031c-11.375.084-17.063.126-19.906 2.97s-2.844 8.489-2.844 19.781c0-11.255 0-16.9-2.817-19.754-2.834-2.871-8.522-2.913-19.934-3 11.027 0 16.71 0 19.638-2.591 3.113-2.754 3.113-8.436 3.113-20.16 0 12.291 0 17.942 3.587 20.54 3.053 2.214 8.704 2.214 19.163 2.214z" class="cls-3" data-name="Path 4666" transform="translate(-2.732 -517.605)"/>
        <path id="Path_4672" d="M279.233 597.031c-11.375.084-17.063.126-19.906 2.97s-2.844 8.489-2.844 19.781c0-11.255 0-16.9-2.817-19.754-2.834-2.871-8.522-2.913-19.934-3 11.027 0 16.71 0 19.638-2.591 3.113-2.754 3.113-8.436 3.113-20.16 0 12.291 0 17.942 3.587 20.54 3.053 2.214 8.704 2.214 19.163 2.214z" class="cls-3" data-name="Path 4672" transform="translate(107.268 -361.605)"/>
    </g>
</svg>
