<svg xmlns="http://www.w3.org/2000/svg" width="1407.922" height="731.225" viewBox="0 0 1407.922 731.225">
    <defs>
        <style>
            .cls-1,.cls-7{fill:none}.cls-2,.cls-9{fill:#fff;stroke-width:.5px}.cls-2,.cls-4,.cls-5,.cls-6,.cls-7,.cls-8,.cls-9{stroke:#000}.cls-2,.cls-5,.cls-6,.cls-7{stroke-miterlimit:10}.cls-3{clip-path:url(#clip-path)}.cls-4{fill:#f4aa4a;stroke-linejoin:round}.cls-5{fill:#f9cf1e}.cls-6{fill:#fff032}.cls-8{stroke-width:.909px}
        </style>
        <clipPath id="clip-path">
            <path id="Rectangle_4023" d="M0 0h1351.799v394.807H0z" class="cls-1" data-name="Rectangle 4023" transform="translate(70.002 570.172)"/>
        </clipPath>
    </defs>
    <g id="Clouds_right" data-name="Clouds right" transform="translate(-712.852 156.699)">
        <g id="Group_10573" data-name="Group 10573" transform="translate(515.596 -290.605)">
            <g id="Group_10562" data-name="Group 10562" transform="translate(390.276 434.321)">
                <path id="Path_4659" d="M543.656 500.555c5.314-6.163 20.3-36.051 7.773-42.145-19.749-9.607-51.376 32.031-60.707 45.225 4.052-5.728 2.523-12.79-2.871-15.789s-11.792.153-16.907 3.453a21.883 21.883 0 0 0-9.143 13.643c5.179-2.653-6.8-22.74-32.413-10.137-14.248 7.011-15.692 18.491-39.112 21.942h150.247" class="cls-2" data-name="Path 4659" transform="translate(-390.276 -432.859)"/>
                <path id="Path_4660" d="M521.431 517.789h132.027l47.263.222c1.2-1.2-37.761-3.164-35.4-9.213 2.339-6 7.8-14.969 3.427-20.183-5.787-6.894-19.146-7-27.8-2.446s-13.738 12.288-18.453 19.691c6.321-13 12.75-26.535 11.616-40.468a34.884 34.884 0 0 0-29.176-31.044c-20.189-3.141-38.315 10.839-48.214 25.339s-19.732 25-32.15 41.911" class="cls-2" data-name="Path 4660" transform="translate(-384.353 -433.901)"/>
            </g>
            <ellipse id="Ellipse_154" cx="13.566" cy="10.914" class="cls-2" data-name="Ellipse 154" rx="13.566" ry="10.914" transform="translate(493.489 424.605)"/>
        </g>
        <g id="Group_10548" class="cls-3" data-name="Group 10548" transform="rotate(-165.02 1044.57 443.97)">
            <path id="Path_3916" d="M821.285 1364.745l325.909-501.763c-97.784-37.16-208.553-58.123-325.909-58.123s-228.124 20.963-325.908 58.123z" class="cls-4" data-name="Path 3916" transform="translate(-95.968 -52.947)"/>
            <path id="Path_3917" d="M527.115 651.144v167.97l303.5 466.424 303.5-466.424v-167.97z" class="cls-5" data-name="Path 3917" transform="translate(-103.128 -18.268)"/>
            <ellipse id="Ellipse_142" cx="43.254" cy="27.394" class="cls-6" data-name="Ellipse 142" rx="43.254" ry="27.394" transform="translate(557.353 666.758)"/>
            <ellipse id="Ellipse_143" cx="24.511" cy="14.778" class="cls-6" data-name="Ellipse 143" rx="24.511" ry="14.778" transform="translate(551.462 618.244)"/>
            <path id="Path_3918" d="M1048.744 607.92c-6.2 6.047-17.109 10.065-29.542 10.065-19.31 0-34.964-9.682-34.964-21.626a13.656 13.656 0 0 1 .2-2.282 890.888 890.888 0 0 0-153.6-13.217c-109.249 0-212.367 19.515-303.4 54.108L679.2 868.623a36.264 36.264 0 0 1 14.3-2.78c13.536 0 24.51 6.616 24.51 14.779 0 7.546-9.382 13.766-21.495 14.663l134.314 206.786 303.4-467.1a801.851 801.851 0 0 0-85.485-27.051z" class="cls-6" data-name="Path 3918" transform="translate(-103.2 -2.411)"/>
            <path id="Path_3919" d="M739.743 979.622c-2.171 4.742-5.607 7.8-9.475 7.8-6.566 0-11.889-8.829-11.889-19.719a27.434 27.434 0 0 1 3.482-13.944" class="cls-7" data-name="Path 3919" transform="translate(-146.279 -86.541)"/>
            <ellipse id="Ellipse_144" cx="56.337" cy="33.385" class="cls-5" data-name="Ellipse 144" rx="56.337" ry="33.385" transform="translate(600.962 774.845)"/>
            <ellipse id="Ellipse_145" cx="20.672" cy="17.254" class="cls-6" data-name="Ellipse 145" rx="20.672" ry="17.254" transform="translate(1017.032 780.645)"/>
            <path id="Path_3920" d="M1232.661 724.09c-4.511-14.1-24.757-18.022-46.859-18.022-25.481 0-46.138 14.041-46.138 31.36s20.657 31.359 46.138 31.359c5.38 0 12.5.429 17.3-.721 1.441 5.767 5.046 9.372 8.651 10.093 10.151 2.03 20.185-9.372 22.348-27.394a80.9 80.9 0 0 0-1.44-26.675z" class="cls-5" data-name="Path 3920" transform="translate(-241.324 -30.659)"/>
            <path id="Line_1" d="M0 0v100.749" class="cls-6" data-name="Line 1" transform="translate(728.259 1100.505)"/>
            <path id="Path_3921" d="M526.174 751.506c12.484 2.4 22.522 15.346 23.461 31.5 1.073 18.467-10.144 34.14-25.054 35.006" class="cls-7" data-name="Path 3921" transform="translate(-102.557 -40.91)"/>
            <path id="Path_3922" d="M773.447 1130.749c7.934 15.867 7.872 38.235-5.192 45.713-9.144 5.234-25.995-2.443-33.043-18.723s-7.393-28.1-4.5-38.235c4.5-15.744 31.488-11.246 42.735 11.245z" class="cls-5" data-name="Path 3922" transform="translate(-148.677 -121.831)"/>
            <path id="Path_3923" d="M1211.552 937.7c-1.592 17.513-11.941 24.678-21.493 17.513-7.21-5.408-8.689-17.13-4.918-31.046 3.242-11.961 11.65-17.857 20-14.476 9.996 4.041 7.446 16.621 6.411 28.009z" class="cls-5" data-name="Path 3923" transform="translate(-251.13 -76.384)"/>
            <ellipse id="Ellipse_146" cx="33.833" cy="18.309" class="cls-6" data-name="Ellipse 146" rx="33.833" ry="18.309" transform="translate(307.507 810.364)"/>
            <ellipse id="Ellipse_147" cx="33.833" cy="18.309" class="cls-5" data-name="Ellipse 147" rx="33.833" ry="18.309" transform="translate(791.255 860.509)"/>
            <ellipse id="Ellipse_148" cx="37.14" cy="20.099" class="cls-5" data-name="Ellipse 148" rx="37.14" ry="20.099" transform="translate(478.834 619.936)"/>
            <path id="Path_3924" d="M591.452 934.779s-11.161-8.865-4.392-40.478l-26.5-2.3-14.26 31.687s-3.173 16.636 45.152 11.091z" class="cls-5" data-name="Path 3924" transform="translate(-107.446 -72.607)"/>
            <path id="Path_3925" d="M1167.039 808.134a39.047 39.047 0 0 1-17.157 3.849c-17.7 0-32.05-11.077-32.05-24.74a19.466 19.466 0 0 1 .964-6.032 799.3 799.3 0 0 0-79.667-35.294L713.22 1247.678l-228.3-352.134a61.006 61.006 0 0 1-9.3.706c-18.685 0-33.832-8.2-33.832-18.31 0-7.6 8.55-14.113 20.727-16.884l-75.2-115.141C240.793 801.6 123.435 893.651 56.77 1006.062c14.356 6.488 23.662 16.883 23.662 28.6 0 19-24.442 34.513-55.227 35.548a407.858 407.858 0 0 0-29.072 150.751c0 294.461 321.051 533.169 717.087 533.169s717.087-238.708 717.087-533.169c.001-166.434-102.568-315.053-263.268-412.827z" class="cls-6" data-name="Path 3925" transform="translate(16.665 -39.649)"/>
            <path id="Path_3926" d="M411.249 777.4c7.345 4.272 11.921 10.294 11.921 16.966 0 12.96-17.263 23.466-38.556 23.466-12.747 0-24.048-3.764-31.067-9.566" class="cls-7" data-name="Path 3926" transform="translate(-63.97 -46.752)"/>
            <ellipse id="Ellipse_149" cx="49.452" cy="30.097" class="cls-7" data-name="Ellipse 149" rx="49.452" ry="30.097" transform="translate(1033.303 844.271)"/>
            <ellipse id="Ellipse_150" cx="33.833" cy="18.309" class="cls-7" data-name="Ellipse 150" rx="33.833" ry="18.309" transform="translate(1210.008 968.638)"/>
            <ellipse id="Ellipse_151" cx="30.946" cy="18.834" class="cls-6" data-name="Ellipse 151" rx="30.946" ry="18.834" transform="translate(181.302 896.307)"/>
            <ellipse id="Ellipse_152" cx="56.337" cy="36.407" class="cls-7" data-name="Ellipse 152" rx="56.337" ry="36.407" transform="translate(333.062 954.843)"/>
        </g>
        <g id="Group_10571" data-name="Group 10571" transform="translate(415.857 -396.605)">
            <g id="Group_10562-2" data-name="Group 10562" transform="translate(390.276 432.563)">
                <path id="Path_4659-2" d="M515.9 492.669c4.352-5.048 16.628-29.526 6.366-34.518-16.175-7.868-42.078 26.234-49.721 37.04 3.319-4.692 2.066-10.475-2.351-12.932s-9.658.125-13.847 2.828a17.923 17.923 0 0 0-7.488 11.173c4.242-2.173-5.571-18.624-26.547-8.3-11.669 5.742-12.852 15.145-32.034 17.971h123.054" class="cls-2" data-name="Path 4659" transform="translate(-390.276 -437.225)"/>
                <path id="Path_4660-2" d="M521.431 502.607h108.133l38.71.181c.986-.981-30.927-2.591-29-7.546 1.916-4.917 6.392-12.26 2.807-16.53-4.74-5.646-15.681-5.729-22.772-2s-11.251 10.064-15.114 16.127c5.177-10.65 10.443-21.732 9.514-33.144a28.571 28.571 0 0 0-23.9-25.426c-16.536-2.572-31.38 8.878-39.489 20.753S534.168 475.5 524 489.346" class="cls-2" data-name="Path 4660" transform="translate(-409.161 -433.901)"/>
            </g>
            <ellipse id="Ellipse_154-2" cx="11.111" cy="8.939" class="cls-2" data-name="Ellipse 154" rx="11.111" ry="8.939" transform="translate(474.81 424.605)"/>
        </g>
        <g id="Group_10572" data-name="Group 10572" transform="translate(592.726 -336.902)">
            <path id="Path_4661" d="M703.991 623.01v-19.645c6.911-5.643 13.994-11.488 18.272-19.318s3.683-25.5-5.856-33.9c-9.992-8.8-37.555-2.038-49.323 4.188-33.837 17.9-44.833 25.714-77.864 49.207 5.429-3.469 11.042-7.121 14.417-12.609s3.779-13.374-.849-17.856c-6.305-6.107-24.443-2.619-32.311 1.272-23.825 11.781-25.05 25.923-63.733 35.426v13.583" class="cls-2" data-name="Path 4661" transform="translate(-3.932)"/>
            <path id="Path_4662" d="M519.236 626.1h251.607c-6.845-9.1-40.342-2.55-38.017-12.778 1.547-6.807 5.779-13.662 2.156-19.63-4.474-7.368-15.243-8.618-23.088-5.043s-13.725 13.929-29.163 21.939" class="cls-2" data-name="Path 4662" transform="translate(-4.773 -2.745)"/>
            <circle id="Ellipse_155" cx="10.996" cy="10.996" r="10.996" class="cls-2" data-name="Ellipse 155" transform="translate(744.079 564.914)"/>
            <circle id="Ellipse_156" cx="5.498" cy="5.498" r="5.498" class="cls-2" data-name="Ellipse 156" transform="translate(749.577 599.795)"/>
            <path id="Path_4663" d="M514.463 612.731c4.082-2.336 8.337-4.837 10.78-8.856s2.3-10.029-1.576-12.695c-4.4-3.027-10.329-.264-14.9 2.5-18.627 11.268-20.773 26.345-60.443 32.633h66.137" class="cls-2" data-name="Path 4663" transform="translate(0 -2.956)"/>
        </g>
        <g id="Group_10574" data-name="Group 10574" transform="translate(728.58 -459.637)">
            <path id="Path_4661-2" d="M616.023 588.637v-10.884c3.829-3.126 7.753-6.365 10.123-10.7s2.041-14.128-3.245-18.781c-5.536-4.874-20.806-1.129-27.326 2.32-18.747 9.918-24.838 14.246-43.139 27.262 3.008-1.922 6.118-3.945 7.987-6.986s2.094-7.409-.47-9.893c-3.493-3.384-13.542-1.451-17.9.7-13.2 6.527-13.878 14.362-35.31 19.627v7.525" class="cls-2" data-name="Path 4661" transform="translate(-28.231)"/>
            <path id="Path_4662-2" d="M519.236 608.542h139.4c-3.792-5.043-22.35-1.413-21.062-7.079.857-3.771 3.2-7.569 1.194-10.875-2.479-4.082-8.445-4.775-12.791-2.794s-7.6 7.717-16.157 12.155" class="cls-2" data-name="Path 4662" transform="translate(-34.268 -19.713)"/>
            <circle id="Ellipse_155-2" cx="6.092" cy="6.092" r="6.092" class="cls-2" data-name="Ellipse 155" transform="translate(612.18 556.45)"/>
            <circle id="Ellipse_156-2" cx="3.046" cy="3.046" r="3.046" class="cls-2" data-name="Ellipse 156" transform="translate(615.226 575.775)"/>
            <path id="Path_4663-2" d="M484.968 602.532c2.262-1.294 4.619-2.68 5.972-4.906s1.274-5.556-.873-7.033c-2.438-1.677-5.722-.146-8.254 1.385-10.32 6.243-11.509 14.6-33.487 18.079h36.642" class="cls-2" data-name="Path 4663" transform="translate(0 -21.228)"/>
        </g>
        <path id="Path_4668" d="M123.88 585.854c-5.787.043-8.68.064-10.127 1.511s-1.447 4.319-1.447 10.063c0-5.726 0-8.6-1.433-10.049s-4.335-1.482-10.141-1.525c5.61 0 8.5 0 9.99-1.318 1.584-1.4 1.584-4.292 1.584-10.256 0 6.253 0 9.128 1.825 10.449 1.553 1.125 4.428 1.125 9.749 1.125z" class="cls-8" data-name="Path 4668" transform="translate(1175.444 -405.428)"/>
        <path id="Path_4671" d="M123.88 585.854c-5.787.043-8.68.064-10.127 1.511s-1.447 4.319-1.447 10.063c0-5.726 0-8.6-1.433-10.049s-4.335-1.482-10.141-1.525c5.61 0 8.5 0 9.99-1.318 1.584-1.4 1.584-4.292 1.584-10.256 0 6.253 0 9.128 1.825 10.449 1.553 1.125 4.428 1.125 9.749 1.125z" class="cls-8" data-name="Path 4671" transform="translate(1020.444 -488.428)"/>
        <path id="Path_4667" d="M279.233 597.031c-11.375.084-17.063.126-19.906 2.97s-2.844 8.489-2.844 19.781c0-11.255 0-16.9-2.817-19.754-2.834-2.871-8.522-2.913-19.934-3 11.027 0 16.71 0 19.638-2.591 3.113-2.754 3.113-8.436 3.113-20.16 0 12.291 0 17.942 3.587 20.54 3.053 2.214 8.704 2.214 19.163 2.214z" class="cls-9" data-name="Path 4667" transform="translate(557.268 -563.605)"/>
        <path id="Path_4669" d="M279.233 597.031c-11.375.084-17.063.126-19.906 2.97s-2.844 8.489-2.844 19.781c0-11.255 0-16.9-2.817-19.754-2.834-2.871-8.522-2.913-19.934-3 11.027 0 16.71 0 19.638-2.591 3.113-2.754 3.113-8.436 3.113-20.16 0 12.291 0 17.942 3.587 20.54 3.053 2.214 8.704 2.214 19.163 2.214z" class="cls-9" data-name="Path 4669" transform="translate(1075.268 -396.605)"/>
        <path id="Path_4670" d="M279.233 597.031c-11.375.084-17.063.126-19.906 2.97s-2.844 8.489-2.844 19.781c0-11.255 0-16.9-2.817-19.754-2.834-2.871-8.522-2.913-19.934-3 11.027 0 16.71 0 19.638-2.591 3.113-2.754 3.113-8.436 3.113-20.16 0 12.291 0 17.942 3.587 20.54 3.053 2.214 8.704 2.214 19.163 2.214z" class="cls-9" data-name="Path 4670" transform="translate(860.268 -479.605)"/>
    </g>
</svg>
