<svg xmlns="http://www.w3.org/2000/svg" id="Group_10658" width="185.048" height="171.479" data-name="Group 10658" viewBox="0 0 185.048 171.479">
    <defs>
        <style>
            .cls-1{fill:#fff}
        </style>
    </defs>
    <path id="Fill-1" d="M47.336 88.212A35.4 35.4 0 0 1 14.673 39.2L30.61 51.935l16.944-28.988L66.18 52.211l13.871-12.879a35.405 35.405 0 0 1-32.715 48.88m39.248-61.849l-3.907-5.783-14.116 13.108L47.12 0 27.267 33.965 11.424 21.308l-3.607 5.458a47.337 47.337 0 1 0 78.767-.4" class="cls-1" transform="translate(44.076)"/>
    <path id="Fill-1-2" d="M47.336 88.212A35.4 35.4 0 0 1 14.673 39.2L30.61 51.935l16.944-28.988L66.18 52.211l13.871-12.879a35.405 35.405 0 0 1-32.715 48.88m39.248-61.849l-3.907-5.783-14.116 13.108L47.12 0 27.267 33.965 11.424 21.308l-3.607 5.458a47.337 47.337 0 1 0 78.767-.4" class="cls-1" data-name="Fill-1" transform="rotate(150 75.892 86.863)"/>
    <path id="Fill-1-3" d="M47.336 88.212A35.4 35.4 0 0 1 14.673 39.2L30.61 51.935l16.944-28.988L66.18 52.211l13.871-12.879a35.405 35.405 0 0 1-32.715 48.88m39.248-61.849l-3.907-5.783-14.116 13.108L47.12 0 27.267 33.965 11.424 21.308l-3.607 5.458a47.337 47.337 0 1 0 78.767-.4" class="cls-1" data-name="Fill-1" transform="rotate(-150 63.968 74.755)"/>
</svg>
