<svg xmlns="http://www.w3.org/2000/svg" width="120" height="61.352" viewBox="0 0 120 61.352">
    <defs>
        <style>
            .cls-1{fill:#fff}
        </style>
    </defs>
    <path id="Path_4827" d="M842.757 299.364c-21.844 37.622-101.617 34.037-120 .994 12.143-23.3 32.5-34.414 58.244-35.292 26.771-.915 47.373 10.886 61.756 34.298zm-66.092 8.921V283.13c-6.043 1.2-11.268 1.827-16.233 3.322-5.748 1.734-7.184 6.576-3.474 11.356a25.444 25.444 0 0 0 19.707 10.477zm43.306-23.33c-21.219-18.947-52.069-18.991-75.244.45 25.099-11.681 50.173-11.093 75.244-.45zm-7.868 4.322l-21.341-6.33v25.993c9.777-4.296 19.332-6.354 21.338-19.664z" class="cls-1" data-name="Path 4827" transform="translate(-722.757 -265.017)"/>
</svg>
