<svg xmlns="http://www.w3.org/2000/svg" id="Group_10655" width="133.472" height="111.462" data-name="Group 10655" viewBox="0 0 133.472 111.462">
    <defs>
        <style>
            .cls-1{fill:#fff}
        </style>
    </defs>
    <g id="Group_10498" data-name="Group 10498" transform="translate(0 36.488)">
        <g id="Group_10497" data-name="Group 10497">
            <g id="Group-9">
                <path id="Fill-5" d="M319.662 745.876c0-.354-.023-.7-.023-1.061 0-33.715 24.208-61.145 53.965-61.145s53.968 27.43 53.968 61.145c0 .358-.018.707-.023 1.061h12.768c0-.354.023-.7.023-1.061 0-40.756-29.936-73.914-66.736-73.914s-66.734 33.158-66.734 73.914c0 .358.02.707.024 1.061z" class="cls-1" transform="translate(-306.87 -670.902)"/>
                <path id="Fill-7" d="M338.442 741.158c-.009-.355-.047-.7-.047-1.061 0-19.542 13.9-35.438 30.992-35.438s30.994 15.9 30.994 35.438c0 .359-.039.705-.047 1.061h12.79c.006-.354.025-.7.025-1.061 0-26.58-19.632-48.207-43.763-48.207s-43.76 21.626-43.76 48.207c0 .358.017.707.023 1.061z" class="cls-1" transform="translate(-302.654 -666.184)"/>
                <path id="Fill-9" d="M357.539 736.366c-.033-.353-.088-.7-.088-1.061 0-5.141 3.434-9.323 7.654-9.323s7.656 4.183 7.656 9.323c0 .364-.055.708-.087 1.061h12.806c.015-.354.049-.7.049-1.061 0-12.181-9.161-22.093-20.425-22.093s-20.422 9.912-20.422 22.093c0 .359.034.707.05 1.061z" class="cls-1" transform="translate(-298.37 -661.391)"/>
            </g>
        </g>
    </g>
    <g id="Group_10579" data-name="Group 10579" transform="rotate(180 66.736 37.487)">
        <g id="Group_10497-2" data-name="Group 10497">
            <g id="Group-9-2" data-name="Group-9">
                <path id="Fill-5-2" d="M12.792 74.974c0-.354-.023-.7-.023-1.061 0-33.715 24.208-61.145 53.966-61.145S120.7 40.2 120.7 73.914c0 .358-.018.707-.023 1.061h12.769c0-.354.023-.7.023-1.061C133.472 33.158 103.535 0 66.735 0S0 33.158 0 73.914c0 .358.02.707.024 1.061z" class="cls-1" data-name="Fill-5"/>
                <path id="Fill-7-2" d="M12.815 49.267c-.009-.355-.047-.7-.047-1.061 0-19.542 13.9-35.438 30.992-35.438s30.995 15.9 30.995 35.438c0 .359-.039.705-.047 1.061H87.5c.006-.354.025-.7.025-1.061C87.525 21.626 67.892 0 43.761 0S0 21.626 0 48.207c0 .358.017.707.023 1.061z" class="cls-1" data-name="Fill-7" transform="translate(22.974 25.707)"/>
                <path id="Fill-9-2" d="M12.857 23.154c-.033-.353-.088-.7-.088-1.061 0-5.141 3.434-9.323 7.654-9.323s7.656 4.183 7.656 9.323c0 .364-.055.708-.087 1.061H40.8c.015-.354.049-.7.049-1.061C40.847 9.912 31.686 0 20.422 0S0 9.912 0 22.093c0 .359.034.707.05 1.061z" class="cls-1" data-name="Fill-9" transform="translate(46.312 51.821)"/>
            </g>
        </g>
    </g>
</svg>
