<svg id="Layer_1" data-name="Layer 1" xmlns="http://www.w3.org/2000/svg" viewBox="0 0 1920 626.7">
  <title>CW_DeveloperPage-HackathonBanner</title>
  <path d="M1862.2,455.6v64h-69.8v84.5H424.2c-4.4-22.9-2-39.4-2-39.4-4.7,9.4-7.8,25.2-9.6,39.4H57.8V107.2l69.8-84.5H1862.2V443.8l-37.6,7.1C1840.3,457,1839.9,453.5,1862.2,455.6Z" fill="#fff"/>
  <polygon points="1862.2 519.6 1792.4 604.1 1792.4 519.6 1862.2 519.6" fill="#fff"/>
  <path d="M1862.2,519.6h-69.8v84.5H424.2c-4.4-22.9-2-39.4-2-39.4-4.7,9.4-7.8,25.2-9.6,39.4H57.8V107.2l69.8-84.5H1862.2V443.8l-37.6,7.1c15.7,6.1,15.3,2.6,37.6,4.7v64l-69.8,84.5" fill="none" stroke="#000" stroke-miterlimit="10"/>
  <polygon points="57.8 107.2 127.6 22.7 127.6 107.2 57.8 107.2" fill="#fff" stroke="#000" stroke-miterlimit="10"/>
</svg>