<svg xmlns="http://www.w3.org/2000/svg" width="22.505" height="20" viewBox="0 0 22.505 20">
    <path d="M21.516 8.352h-.329V3.846A2.09 2.09 0 0 0 19.1 1.758h-9.055L3.937.013h-.181l-.019.006h-.011l-.019.008h-.01l-.018.01-.009.006-.017.012-.009.007-.016.013-.008.008-.014.014-.008.009-.012.015-.008.011-.01.015L3.56.16l-.008.015-.007.015-.006.015-.006.016v.021L3.15 1.758H2.088A2.09 2.09 0 0 0 0 3.839v11.435a.33.33 0 1 0 .659 0V5.367a2.08 2.08 0 0 0 1.429.567H19.1a1.43 1.43 0 0 1 1.427 1.429v2.308h-3.686l-.025.006h-.006l-.022.008h-.008l-.018.008-.012.006-.013.008-.015.009-.009.007-.017.012-.007.006-.017.015-.009.01-.013.014-.019.026-1.758 2.637a.324.324 0 0 0-.031.058c0 .008-.006.015-.008.023v.007c0 .008 0 .016-.006.025v.141c0 .008 0 .017.006.025v.007c0 .008.005.015.008.023a.328.328 0 0 0 .031.058l1.758 2.637a.341.341 0 0 0 .023.03l.008.009.017.018.011.01.02.016.009.007.031.019h.008l.026.012h.01l.026.008h3.712v2.308a1.43 1.43 0 0 1-1.432 1.457H2.088A1.43 1.43 0 0 1 .66 17.912v-1.319a.33.33 0 0 0-.659 0v1.329a2.09 2.09 0 0 0 2.087 2.079H19.1a2.09 2.09 0 0 0 2.088-2.088v-2.312h.329a.99.99 0 0 0 .989-.989V9.341a.99.99 0 0 0-.99-.989zM4.083.741L9.9 2.401l3.9 1.114H3.39zm16.444 5.1a2.08 2.08 0 0 0-1.429-.567H2.088a1.429 1.429 0 1 1 0-2.857h.9l-.275 1.1h-.625a.33.33 0 0 0 0 .659h16.571a.33.33 0 0 0 0-.659H16.2l-3.847-1.1H19.1a1.43 1.43 0 0 1 1.429 1.429zm1.318 8.773a.33.33 0 0 1-.329.329h-4.439l-1.538-2.307 1.538-2.308h4.453a.985.985 0 0 0 .316-.056zm-.329-4.945h-.329v-.658h.329a.33.33 0 0 1 0 .659z" data-name="Path 6104"/>
    <path d="M18.22 11.429a1.209 1.209 0 1 0 1.209 1.209 1.21 1.21 0 0 0-1.209-1.209zm0 1.758a.549.549 0 1 1 .549-.549.55.55 0 0 1-.549.549z" data-name="Path 6105"/>
</svg>
