<svg xmlns="http://www.w3.org/2000/svg" width="49" height="49" viewBox="0 0 49 49">
    <defs>
        <style>
            .cls-1{fill:#26a6d1}.cls-2{fill:#fff}.cls-3{filter:url(#Path_3893)}
        </style>
        <filter id="Path_3893" width="49" height="49" x="0" y="0" filterUnits="userSpaceOnUse">
            <feOffset dy="1"/>
            <feGaussianBlur result="blur" stdDeviation="1.5"/>
            <feFlood flood-opacity=".161"/>
            <feComposite in2="blur" operator="in"/>
            <feComposite in="SourceGraphic"/>
        </filter>
    </defs>
    <g id="Group_10862" data-name="Group 10862" transform="translate(-926 -685)">
        <g class="cls-3" transform="translate(926 685)">
            <path id="Path_3893-2" d="M20 0A20 20 0 1 1 0 20 20 20 0 0 1 20 0z" class="cls-1" data-name="Path 3893" transform="translate(4.5 3.5)"/>
        </g>
        <path id="Path_3894" d="M83.995 83.881a8.505 8.505 0 0 1-2.391.637 4.072 4.072 0 0 0 1.831-2.236 8.438 8.438 0 0 1-2.644.981 4.216 4.216 0 0 0-3.038-1.275 4.1 4.1 0 0 0-4.161 4.038 3.92 3.92 0 0 0 .108.921 11.938 11.938 0 0 1-8.578-4.221 3.923 3.923 0 0 0-.564 2.03 4.006 4.006 0 0 0 1.851 3.361 4.232 4.232 0 0 1-1.886-.506v.051a4.075 4.075 0 0 0 3.339 3.961 4.3 4.3 0 0 1-1.1.142 4.2 4.2 0 0 1-.782-.073 4.151 4.151 0 0 0 3.891 2.808 8.509 8.509 0 0 1-5.17 1.729 8.757 8.757 0 0 1-.994-.056 12.045 12.045 0 0 0 6.381 1.816 11.581 11.581 0 0 0 11.843-11.495l-.012-.523a8.306 8.306 0 0 0 2.076-2.09z" class="cls-2" data-name="Path 3894" transform="translate(877.292 619.012)"/>
    </g>
</svg>
