<svg xmlns="http://www.w3.org/2000/svg" width="76.382" height="65.112" viewBox="0 0 76.382 65.112">
    <g data-name="Group 10684">
        <path d="M9.955 13.767a3.464 3.464 0 0 1-1.647-.293.3.3 0 1 0-.282.524q.093.05.186.091a2.6 2.6 0 0 0-1.384 1.459 2.639 2.639 0 0 0-1.385-1.46 2.641 2.641 0 0 0 1.385-1.46c.057.141.109.238.111.242a.3.3 0 0 0 .53-.271 3.189 3.189 0 0 1-.319-1.536.324.324 0 0 0-.266-.359.328.328 0 0 0-.377.249 2.855 2.855 0 0 1-1.033 2.445 3.282 3.282 0 0 1-1.782.37.328.328 0 0 0 0 .64 3.268 3.268 0 0 1 1.8.38 2.777 2.777 0 0 1 1.011 2.369.327.327 0 0 0 .64.092 2.969 2.969 0 0 1 .988-2.435 3.088 3.088 0 0 1 1.8-.4.328.328 0 0 0 .024-.647z" data-name="Path 90"/>
        <path d="M19.992 7.962c-.544-.06-4.422.484-6.116-3.074a8.441 8.441 0 0 1-.711-3.781.368.368 0 0 0-.726.066v.772c-.134 2.654-1.342 4.913-3.879 5.709a9.748 9.748 0 0 1-2.974.313.369.369 0 0 0 0 .719c.332.07 2.829-.335 4.769 1.276a.3.3 0 0 0 .38-.458 5.94 5.94 0 0 0-2.376-1.177 5.933 5.933 0 0 0 4.442-4.722 5.913 5.913 0 0 0 4.451 4.72 5.921 5.921 0 0 0-4.455 4.711 7.018 7.018 0 0 0-1.069-2.453.3.3 0 1 0-.486.343 5.736 5.736 0 0 1 .489.838 8.336 8.336 0 0 1 .7 3.735.368.368 0 1 0 .731-.082c-.041-.987.036-4.329 2.735-5.914a7.906 7.906 0 0 1 4.119-.818.368.368 0 0 0-.024-.723z" data-name="Path 91"/>
        <path d="M6.518 3.068a2.492 2.492 0 0 1-2.5-1.192A3.359 3.359 0 0 1 3.712.364a.323.323 0 0 0-.266-.359.328.328 0 0 0-.377.249 2.854 2.854 0 0 1-1.033 2.445 3.115 3.115 0 0 1-1.749.365.328.328 0 0 0-.033.645 3.259 3.259 0 0 1 1.8.38 2.55 2.55 0 0 1 1.011 2.042 1.716 1.716 0 0 0 .014.418.328.328 0 0 0 .635-.039 3.637 3.637 0 0 1 .316-1.624.3.3 0 0 0-.53-.264q-.056.112-.1.232a2.64 2.64 0 0 0-1.385-1.461A2.641 2.641 0 0 0 3.4 1.933a2.612 2.612 0 0 0 1.384 1.461q-.1.043-.194.1a.3.3 0 0 0 .283.523 3.309 3.309 0 0 1 1.628-.294.328.328 0 0 0 .017-.655z" data-name="Path 92"/>
        <g data-name="Group 10683">
            <path d="M75.58 42.182l-2.954-7.22q.159-.655.3-1.331a35.954 35.954 0 0 0 .845-7.674c-.045-4.46-1.239-7.615-3.549-9.378-4.095-3.125-7.741-3.35-16.615-2.436a64.936 64.936 0 0 1-7.27.483c-1.787 0-3.291-.037-6.435-.159-8.836-.343-12.142-.182-15.606 1.5-3.645 1.765-5.668 5.046-6.013 9.753a26.375 26.375 0 0 0 .858 8.275c.188.752.4 1.484.625 2.174.13.4.23.673.285.815.05.114.1.223.153.336l-.159-.071-3.032 6.818c-1.319 2.8-.527 5.734 1.927 7.132a4.889 4.889 0 0 0 2.429.628 5.662 5.662 0 0 0 1.52-.212 5.793 5.793 0 0 0 3.448-2.591l.532-.808c.271.317.549.618.826.919l-2.225 7.416a6.63 6.63 0 0 0 3.759 8.219l.058.021a6.064 6.064 0 0 0 7.773-4.005l2.188-4.432c2.11.87 5.5 1.006 7.369 1.006h.554a25.423 25.423 0 0 0 6.49-.812l1.053 3.266a6.086 6.086 0 0 0 7.755 4.177l.059-.021a6.611 6.611 0 0 0 3.872-8.089l-1.062-6.917c.4-.434.784-.885 1.157-1.347l.276.443a5.1 5.1 0 0 0 3.256 2.4 5.02 5.02 0 0 0 1.128.128 5.158 5.158 0 0 0 2.884-.889 5.684 5.684 0 0 0 1.541-7.517zm-50.966 5.743l-.039.063a3.752 3.752 0 0 1-2.234 1.655 3.108 3.108 0 0 1-2.389-.223c-1.864-1.061-1.753-3.08-1.08-4.507l2.385-5.364a44.261 44.261 0 0 0 4.274 6.984zm39.661-5.905l-2.018.311 2.139 13.929.038.16a4.567 4.567 0 0 1-2.628 5.632 4.037 4.037 0 0 1-5.126-2.8l-3.95-12.265-1.943.626 2.251 6.989a27.941 27.941 0 0 1-12.882-.086l3.022-6.123-1.831-.9-6.155 12.47-.067.176a4.011 4.011 0 0 1-4.513 2.88 2.723 2.723 0 1 0-1.764-.831 4.6 4.6 0 0 1-1.43-5.021l4.335-14.45-1.956-.587-1.413 4.712a42.418 42.418 0 0 1-6.441-10.629c-.034-.086-.121-.33-.235-.68a29.204 29.204 0 0 1-.585-2.035 24.369 24.369 0 0 1-.8-7.629c.292-3.983 1.883-6.621 4.866-8.065 2.894-1.4 5.631-1.642 14.637-1.293 2.806.109 4.5.161 6.514.161a68.873 68.873 0 0 0 7.479-.494c8.964-.922 11.8-.544 15.167 2.027 1.784 1.362 2.708 3.978 2.746 7.776a33.943 33.943 0 0 1-.8 7.234c-.167.8-.354 1.575-.553 2.314-.11.405-.194.691-.24.836a30.435 30.435 0 0 1-5.2 9.934zm8.591 6a3.041 3.041 0 0 1-4.344-1.023l-.718-1.152a32.944 32.944 0 0 0 3.894-7.758l2.021 4.938.073.145a3.646 3.646 0 0 1-.926 4.852z" data-name="Path 4679"/>
            <path d="M59.633 56.344a2.722 2.722 0 1 0 3.551 1.489 2.723 2.723 0 0 0-3.551-1.489z" data-name="Path 4680"/>
        </g>
    </g>
</svg>
