<svg xmlns="http://www.w3.org/2000/svg" id="Group_10597" width="30" height="30" data-name="Group 10597" viewBox="0 0 30 30">
    <defs>
        <style>
            .cls-1{fill:#35d1e7;stroke:#000;stroke-width:.5px}.cls-2{fill:#fff}.cls-3{stroke:none}.cls-4{fill:none}
        </style>
    </defs>
    <g id="Ellipse_125" class="cls-1" data-name="Ellipse 125">
        <circle cx="15" cy="15" r="15" class="cls-3"/>
        <circle cx="15" cy="15" r="14.75" class="cls-4"/>
    </g>
    <path id="Fill-14" d="M660.608 716.3l-.23-.133a4.589 4.589 0 0 0-5.7.186c-1.321.98-2.812.18-3.643-.443v1.827a5.044 5.044 0 0 0 2.31.622 3.713 3.713 0 0 0 2.256-.761 3.1 3.1 0 0 1 4-.092l.253.146a4.216 4.216 0 0 0 4.369.036v-1.823c-1.916 1.386-3 .779-3.61.436" class="cls-2" transform="translate(-642.597 -697.039)"/>
    <path id="Fill-16" d="M666.857 693.14c-.121-.068-.248-.142-.381-.219-1.762-1.028-5.041-2.941-9.421.308-2.184 1.62-4.648.3-6.021-.733v3.02a8.341 8.341 0 0 0 3.818 1.028 6.136 6.136 0 0 0 3.73-1.258c3.022-2.242 5.008-1.083 6.6-.152.146.085.285.166.417.241a6.971 6.971 0 0 0 7.221.059v-3.014c-3.168 2.29-4.958 1.287-5.966.72" class="cls-2" transform="translate(-646.874 -678.938)"/>
    <path id="Fill-18" d="M660.607 668.617l-.23-.133a4.59 4.59 0 0 0-5.7.186c-1.321.98-2.812.18-3.643-.443v1.827a5.048 5.048 0 0 0 2.31.622 3.713 3.713 0 0 0 2.257-.761 3.1 3.1 0 0 1 3.995-.092c.088.052.172.1.253.146a4.218 4.218 0 0 0 4.369.036v-1.823c-1.916 1.385-3 .779-3.61.436" class="cls-2" transform="translate(-642.596 -658.845)"/>
</svg>
