<svg xmlns="http://www.w3.org/2000/svg" width="158.419" height="144.573" viewBox="0 0 158.419 144.573">
    <defs>
        <style>
            .cls-1{fill:#fff}.cls-2{fill:none;stroke:#fff;stroke-linecap:square;stroke-width:11px}
        </style>
    </defs>
    <g id="Group_10657" data-name="Group 10657" transform="rotate(90 72.66 78.175)">
        <g id="Group_10504" data-name="Group 10504" transform="translate(17.083 42.167)">
            <g id="Group_10503" data-name="Group 10503">
                <path id="Path_3908" d="M96.828 32.583v4.267a4.948 4.948 0 0 0-.215.742c-.472 3.514-.687 7.084-1.445 10.535-2.487 11.323-7.744 21.171-17.133 28.2-16.049 12.01-33.66 14-52.087 6.407C13.024 77.41 4.575 67.775 1.206 54.013.684 51.878.4 49.685 0 47.519v-8.8c.256-1.519.506-3.039.766-4.557a38.6 38.6 0 0 1 46-31.4C66.34 6.87 75.357 24.6 71.893 41.28a26.369 26.369 0 0 1-30.954 20.308C26.394 58.769 22.815 46.98 25.1 37.372c2.117-8.92 10.452-12.71 16.561-12.529v11.4c-.759.216-1.495.381-2.2.633a4.637 4.637 0 0 0-2.845 2.635 7.45 7.45 0 0 0 4.331 10.04 14.7 14.7 0 0 0 18.016-6.661c3.986-7.09 2.006-17.911-4.485-23.685A21.939 21.939 0 0 0 35.5 13.938c-9.314 1.553-16.746 6.024-20.964 14.831A33.131 33.131 0 0 0 11.7 45.13c.552 10.369 4.988 18.6 13.782 24.237 8.748 5.611 18.37 7.136 28.5 5.3 11.488-2.079 20.464-7.925 25.964-18.428a47.235 47.235 0 0 0-5.565-51.3C73 3.288 71.483 1.757 69.988.124a1.94 1.94 0 0 1 .419-.113C75.118 0 79.831-.02 84.542.036a1.989 1.989 0 0 1 1.351.8 57.581 57.581 0 0 1 10.138 25.2c.32 2.175.534 4.364.797 6.547z" class="cls-1" data-name="Path 3908"/>
            </g>
        </g>
        <path id="Path_4674" d="M96 43.638C61.655 2.864 19.645 35.55 8.909 50.853s-19.665 71.76 22.748 88.414 72.419-6.614 72.419-6.614S185.025 67.1 78.533 0" class="cls-2" data-name="Path 4674"/>
    </g>
</svg>
