<svg xmlns="http://www.w3.org/2000/svg" width="30" height="30" viewBox="0 0 30 30">
    <defs>
        <style>
            .cls-1{fill:#8bea63;stroke:#000;stroke-width:.5px}.cls-2{fill:#fff}.cls-3,.cls-5{fill:none}.cls-3{stroke:#fff;stroke-linecap:square;stroke-width:1.3px}.cls-4{stroke:none}
        </style>
    </defs>
    <g id="Group_10608" data-name="Group 10608" transform="translate(-2101 45)">
        <g id="Group_10599" data-name="Group 10599">
            <g id="Ellipse_126" class="cls-1" data-name="Ellipse 126" transform="translate(2101 -45)">
                <circle cx="15" cy="15" r="15" class="cls-4"/>
                <circle cx="15" cy="15" r="14.75" class="cls-5"/>
            </g>
            <g id="Group_10504" data-name="Group 10504" transform="rotate(74.99 1083.124 1362.344)">
                <g id="Group_10503" data-name="Group 10503">
                    <path id="Path_3908" d="M11.351 3.82v.5a.58.58 0 0 0-.025.087c-.055.412-.081.83-.169 1.235a5.411 5.411 0 0 1-2.009 3.305 5.885 5.885 0 0 1-6.106.753 4.685 4.685 0 0 1-2.9-3.367C.08 6.081.046 5.824 0 5.57V4.539L.09 4A4.524 4.524 0 0 1 5.483.323a3.731 3.731 0 0 1 2.945 4.516A3.091 3.091 0 0 1 4.8 7.22a2.22 2.22 0 0 1-1.858-2.839 1.946 1.946 0 0 1 1.941-1.469v1.337c-.089.025-.175.045-.258.074a.544.544 0 0 0-.334.309.873.873 0 0 0 .509 1.177 1.724 1.724 0 0 0 2.112-.781 2.386 2.386 0 0 0-.526-2.777 2.572 2.572 0 0 0-2.225-.618A3.1 3.1 0 0 0 1.7 3.372a3.884 3.884 0 0 0-.329 1.918 3.406 3.406 0 0 0 1.616 2.842 4.5 4.5 0 0 0 3.341.622 4.06 4.06 0 0 0 3.044-2.16A5.537 5.537 0 0 0 8.719.579C8.558.385 8.38.206 8.2.015A.227.227 0 0 1 8.254 0h1.657a.233.233 0 0 1 .158.1 6.75 6.75 0 0 1 1.188 2.954c.038.253.063.51.094.766z" class="cls-2" data-name="Path 3908"/>
                </g>
            </g>
            <path id="Path_4674" d="M11.254 5.116C7.228.336 2.3 4.167 1.044 5.961s-2.305 8.412 2.667 10.364a8.955 8.955 0 0 0 8.489-.775S21.69 7.866 9.206 0" class="cls-3" data-name="Path 4674" transform="rotate(74.99 1087.347 1363.511)"/>
        </g>
    </g>
</svg>
