<svg xmlns="http://www.w3.org/2000/svg" width="200.506" height="83.126" viewBox="0 0 200.506 83.126">
    <defs>
        <style>
            .cls-1{fill:#fff032;stroke:#000}
        </style>
    </defs>
    <g id="Group_96" data-name="Group 96" transform="translate(-17.242 -137.564)">
        <g id="Group_92" data-name="Group 92" transform="translate(17.749 137.564)">
            <path id="Subtraction_7" d="M33.157 75.437a3.7 3.7 0 0 1-3.464-2.023 5.419 5.419 0 0 1-.582-2.023V48.056a4.353 4.353 0 0 0-.456-1.633 2.962 2.962 0 0 0-2.809-1.633 2.962 2.962 0 0 0-2.809 1.633 4.311 4.311 0 0 0-.456 1.633v5.962a3.974 3.974 0 0 1-.9 2.7 3.711 3.711 0 0 1-2.854 1.057 3.712 3.712 0 0 1-2.855-1.057 3.97 3.97 0 0 1-.9-2.7v-9.227a5.442 5.442 0 0 0-.609-1.8 3.3 3.3 0 0 0-3-1.8 3.288 3.288 0 0 0-3 1.8 5.447 5.447 0 0 0-.608 1.8V62a4.343 4.343 0 0 1-1.073 2.87 3.806 3.806 0 0 1-2.856 1.055 3.806 3.806 0 0 1-2.855-1.055A4.4 4.4 0 0 1 0 62V20.843c1.611-1.146 2.694-4.11 2.694-7.374S1.611 7.242 0 6.1V3.933C0 .284 2.853 0 3.727 0c.1 0 .173 0 .2.006h6.408a5.8 5.8 0 1 0 11.233 0H39.48a3.314 3.314 0 1 0 5.961 0H72.9a2.06 2.06 0 0 0 1.039 2.811 3.517 3.517 0 0 0 1.49.366 3.048 3.048 0 0 0 2.531-1.622 3.091 3.091 0 0 0 0 1.861 2.1 2.1 0 0 0 1.158 1.194 3.262 3.262 0 0 0 1.366.3 2.91 2.91 0 0 0 2.8-1.8c-.019.584 0 2.526 1.112 3.028a1.56 1.56 0 0 0 .646.139 3.4 3.4 0 0 0 2.66-2.192c.023.791.167 2.651 1.033 2.852.455.106 1.057.268 2.012.544a1.936 1.936 0 0 1 .533-.075 2.253 2.253 0 0 1 .8.153v41.4a3.791 3.791 0 0 1-.85 2.586 4.235 4.235 0 0 1-5.517 0 3.786 3.786 0 0 1-.849-2.586v-7.781a1.825 1.825 0 1 0-3.637 0v16.591a6.608 6.608 0 0 1-.73 2.112 3.948 3.948 0 0 1-6.989 0 6.467 6.467 0 0 1-.73-2.112v-13.9a3.483 3.483 0 0 0-.351-1.347 2.712 2.712 0 0 0-4.687 0 3.477 3.477 0 0 0-.351 1.347v8.7a5.887 5.887 0 0 1-.631 2.147 4.2 4.2 0 0 1-7.325 0 5.879 5.879 0 0 1-.631-2.146v-8.7a4.943 4.943 0 0 0-1.177-3.28 5.126 5.126 0 0 0-6.672 0 4.939 4.939 0 0 0-1.177 3.28V62a2.683 2.683 0 0 1-.625 1.827 2.933 2.933 0 0 1-3.819 0A2.678 2.678 0 0 1 44.716 62v-4.225a5.433 5.433 0 0 0-.588-1.878 3.613 3.613 0 0 0-6.339 0 5.451 5.451 0 0 0-.587 1.878v13.616a5.523 5.523 0 0 1-.582 2.023 3.674 3.674 0 0 1-3.463 2.023zm-28.806-25.1a1.657 1.657 0 1 0 1.657 1.657 1.659 1.659 0 0 0-1.657-1.657zm37.282-9.113a4.142 4.142 0 1 0 4.143 4.143 4.147 4.147 0 0 0-4.144-4.143zm20.712-4.971A1.657 1.657 0 1 0 64 37.91a1.659 1.659 0 0 0-1.656-1.657zm-42.252 0a1.657 1.657 0 1 0 1.657 1.657 1.659 1.659 0 0 0-1.658-1.657zm56.336-3.314a2.485 2.485 0 1 0 2.486 2.485 2.488 2.488 0 0 0-2.487-2.485zm-43.909 0A2.485 2.485 0 1 0 35 35.424a2.488 2.488 0 0 0-2.481-2.485zM4.351 30.454a2.485 2.485 0 1 0 2.486 2.485 2.488 2.488 0 0 0-2.486-2.485zm61.308-27.34a3.314 3.314 0 1 0 3.313 3.313 3.318 3.318 0 0 0-3.313-3.313zM51.574 6.427a1.657 1.657 0 1 0 1.656 1.658 1.66 1.66 0 0 0-1.656-1.658zm-22.369 0a1.657 1.657 0 1 0 1.657 1.658A1.659 1.659 0 0 0 29.2 6.427z" class="cls-1" data-name="Subtraction 7" transform="translate(0 7.189)"/>
            <g id="Group_90" data-name="Group 90" transform="translate(96.462 13.617)">
                <path id="Path_84" d="M27.538-17.4a11.806 11.806 0 0 1-3.6 8.658 11.806 11.806 0 0 1-8.658 3.6q-1.7 0-3.977-.166H7.82q-.207 0-.911.041t-1.077.041H5.5l.207-.994H6a1.866 1.866 0 0 0 1.24-.447A2.451 2.451 0 0 0 7.571-8.2v-18.392a2.451 2.451 0 0 0-.331-1.533A1.866 1.866 0 0 0 6-28.58h-.29l-.21-.994h.331q.373 0 1.077.041t.911.041h2.817q2.983-.166 4.639-.166a11.806 11.806 0 0 1 8.658 3.6 11.806 11.806 0 0 1 3.605 8.658zm-5.468 0a7.1 7.1 0 0 0-2.133-5.178 6.992 6.992 0 0 0-5.157-2.154h-1.409v14.664h1.408a6.992 6.992 0 0 0 5.157-2.154A7.1 7.1 0 0 0 22.07-17.4zM64.281-6.957l-.331.166q-.663.29-1.781.828l-4.682 2.486q-.539.373-1.7 1.036l-.331.166-.249-.994.249-.124q.87-.58.87-1.2a3.46 3.46 0 0 0-.414-1.326L54.794-8.2H43.569L42.45-5.921a3.46 3.46 0 0 0-.414 1.321 1.567 1.567 0 0 0 .828 1.2 2.273 2.273 0 0 1 .29.124l-.29.994-.331-.166q-.621-.414-1.657-1.036L36.2-5.963l-1.781-.828-.331-.166.663-.787a1.873 1.873 0 0 1 .249.166 2.922 2.922 0 0 0 .911.207q.746 0 1.408-1.284L49.161-30.9 61.049-8.655q.7 1.284 1.408 1.284a3.283 3.283 0 0 0 .911-.207.964.964 0 0 1 .249-.166zm-12.013-6.379l-3.107-6.255-3.061 6.255zM96.3-17.4a12.285 12.285 0 0 1-3.707 8.989 12.231 12.231 0 0 1-9.01 3.728A12.251 12.251 0 0 1 74.6-8.407a12.251 12.251 0 0 1-3.733-8.993 12.251 12.251 0 0 1 3.733-8.985 12.251 12.251 0 0 1 8.989-3.728 12.265 12.265 0 0 1 9.01 3.707A12.265 12.265 0 0 1 96.3-17.4zM91-19.26a7.683 7.683 0 0 0-2.03-3.521 7.373 7.373 0 0 0-3.521-1.988v5.509zm-9.279 0v-5.509a7.373 7.373 0 0 0-3.521 1.988 7.373 7.373 0 0 0-1.988 3.521zM91-15.532h-5.552v5.509a7.5 7.5 0 0 0 3.542-1.988A7.3 7.3 0 0 0 91-15.532zm-9.28 5.51v-5.509h-5.509a7.768 7.768 0 0 0 2.009 3.521 7.246 7.246 0 0 0 3.5 1.988z" data-name="Path 84" transform="translate(-5.5 30.9)"/>
            </g>
            <circle id="Ellipse_59" cx="2.485" cy="2.485" r="2.485" class="cls-1" data-name="Ellipse 59" transform="translate(16.778 71.61)"/>
            <circle id="Ellipse_57" cx="3.314" cy="3.314" r="3.314" class="cls-1" data-name="Ellipse 57" transform="translate(54.059 66.639)"/>
            <circle id="Ellipse_58" cx="3.314" cy="3.314" r="3.314" class="cls-1" data-name="Ellipse 58" transform="translate(85.541 66.639)"/>
            <g id="shining" transform="translate(183.173)">
                <g id="Group_84" data-name="Group 84" transform="translate(2.847 8.864)">
                    <g id="Group_83" data-name="Group 83">
                        <path id="Path_90" d="M92.043 307.947a2.87 2.87 0 0 1-1.364-.243.247.247 0 1 0-.234.434q.077.041.154.075a2.155 2.155 0 0 0-1.147 1.209 2.186 2.186 0 0 0-1.147-1.21A2.188 2.188 0 0 0 89.452 307c.047.116.09.2.092.2a.247.247 0 0 0 .439-.224 2.642 2.642 0 0 1-.264-1.273.268.268 0 0 0-.22-.3.272.272 0 0 0-.313.206 2.365 2.365 0 0 1-.856 2.026 2.719 2.719 0 0 1-1.476.307.272.272 0 0 0 0 .53 2.707 2.707 0 0 1 1.489.315 2.3 2.3 0 0 1 .837 1.962.271.271 0 0 0 .53.076 2.459 2.459 0 0 1 .818-2.018 2.559 2.559 0 0 1 1.492-.331.272.272 0 0 0 .023-.529z" data-name="Path 90" transform="translate(-86.643 -305.405)"/>
                    </g>
                </g>
                <g id="Group_86" data-name="Group 86" transform="translate(4.391 .681)">
                    <g id="Group_85" data-name="Group 85">
                        <path id="Path_91" d="M145.774 62.314c-.451-.05-3.663.4-5.067-2.546a6.993 6.993 0 0 1-.589-3.132.3.3 0 0 0-.6.055v.64c-.111 2.2-1.112 4.071-3.214 4.729a8.076 8.076 0 0 1-2.464.259.305.305 0 0 0 0 .6 5.921 5.921 0 0 1 3.951 1.057.247.247 0 0 0 .315-.379 4.921 4.921 0 0 0-1.968-.975 4.915 4.915 0 0 0 3.68-3.912 4.9 4.9 0 0 0 3.688 3.91 4.906 4.906 0 0 0-3.691 3.9 5.814 5.814 0 0 0-.886-2.032.247.247 0 1 0-.4.284 4.751 4.751 0 0 1 .4.694 6.906 6.906 0 0 1 .583 3.095.3.3 0 1 0 .606-.068c-.034-.817.03-3.586 2.266-4.9a6.55 6.55 0 0 1 3.412-.677.305.305 0 0 0-.022-.602z" data-name="Path 91" transform="translate(-133.602 -56.398)"/>
                    </g>
                </g>
                <g id="Group_88" data-name="Group 88">
                    <g id="Group_87" data-name="Group 87">
                        <path id="Path_92" d="M5.4 38.22a2.064 2.064 0 0 1-2.071-.988 2.783 2.783 0 0 1-.253-1.252.268.268 0 0 0-.221-.3.271.271 0 0 0-.313.207 2.365 2.365 0 0 1-.856 2.025 2.58 2.58 0 0 1-1.449.3.272.272 0 0 0-.027.534 2.7 2.7 0 0 1 1.489.315 2.112 2.112 0 0 1 .837 1.692 1.421 1.421 0 0 0 .012.347.272.272 0 0 0 .526-.033 3.013 3.013 0 0 1 .261-1.346.247.247 0 0 0-.435-.221q-.047.093-.087.192a2.187 2.187 0 0 0-1.148-1.211 2.188 2.188 0 0 0 1.147-1.21 2.164 2.164 0 0 0 1.146 1.21q-.081.036-.161.079a.247.247 0 0 0 .232.44 2.742 2.742 0 0 1 1.349-.244.272.272 0 0 0 .022-.536z" data-name="Path 92" transform="translate(0 -35.678)"/>
                    </g>
                </g>
            </g>
            <path id="Path_97" d="M12.936-17.977a1.185 1.185 0 0 1-1.1-.859 1.989 1.989 0 0 0-.6-.894 3.318 3.318 0 0 0-1.192-.126q-1.661 0-3.689 2.544Q3.61-13.9 3.61-10.839A3.691 3.691 0 0 0 4.561-8.3 3.029 3.029 0 0 0 6.91-7.2a5.187 5.187 0 0 0 2.371-.6 17.859 17.859 0 0 0 2.039-1.352 2 2 0 0 1 .985-.481 1.061 1.061 0 0 1 .825.372 1.218 1.218 0 0 1 .332.831 1.183 1.183 0 0 1-.435.905A9.247 9.247 0 0 1 6.91-4.847 5.189 5.189 0 0 1 2.9-6.668a6.044 6.044 0 0 1-1.581-4.17q0-3.884 3.254-7.963 2.715-3.4 5.477-3.4a8.867 8.867 0 0 1 1.008.052 3.936 3.936 0 0 1 .791.166 1.216 1.216 0 0 1 1.043-.584q.791 0 1 1.043a12 12 0 0 1 .183 2.28 1.389 1.389 0 0 1-.252.825 1.009 1.009 0 0 1-.887.442zM25.608-4.411a1.047 1.047 0 0 1-1.066-.871 19.474 19.474 0 0 1-.481-2.67 23 23 0 0 1-.206-2.727q0-.3.029-.905t.029-.905q0-2.154-1.077-2.154a3.387 3.387 0 0 0-2.6 1.318 15.892 15.892 0 0 0-1.6 2.578q0 4.365-.367 5.167a1.051 1.051 0 0 1-1 .71 1.193 1.193 0 0 1-.825-.321 1.012 1.012 0 0 1-.355-.779 1.99 1.99 0 0 1 .1-.5 9.021 9.021 0 0 0 .126-1.673l.034-1.7.034-8.421q.08-1.421.08-1.913a5.4 5.4 0 0 0-.109-1.106 5.285 5.285 0 0 1-.109-1.083 1.05 1.05 0 0 1 .332-.8 1.138 1.138 0 0 1 .813-.315 1.035 1.035 0 0 1 1.1 1.008 12.434 12.434 0 0 1 .183 2.005q0 1.2-.08 2.509-.069 1.249-.057 2.509l.011 1.008a6.9 6.9 0 0 1 2.011-1.885 4.445 4.445 0 0 1 2.274-.624 2.749 2.749 0 0 1 2.612 1.237 6.673 6.673 0 0 1 .573 2.933l.092 2.188.232 2.393a23.748 23.748 0 0 0 .39 2.36 1.489 1.489 0 0 1 .046.332 1.021 1.021 0 0 1-.344.785 1.178 1.178 0 0 1-.825.312zm15.146-16.132a1.269 1.269 0 0 1-.354-.057 13.653 13.653 0 0 0-3.735-.55 13.489 13.489 0 0 0-2.051.172 21.135 21.135 0 0 0-2.395.527 9.141 9.141 0 0 1 .1 1.192q0 1.593-.195 4.377l5.018-.481q2.211-.229 2.715-.229a1.2 1.2 0 0 1 .848.321 1.119 1.119 0 0 1 .344.859A1.061 1.061 0 0 1 40-13.245L37.271-13l-5.293.481q-.046.813-.074 1.541t-.029 1.358a6.55 6.55 0 0 0 .367 2.979q.275.321 1.8.321.71 0 2.137-.04t2.148-.04A4.489 4.489 0 0 0 39-6.479a4.474 4.474 0 0 1 .665-.074 1.063 1.063 0 0 1 1.215 1.191 1.078 1.078 0 0 1-.974 1.157 30.3 30.3 0 0 1-4.663.218q-3.552 0-4.56-.939-1.1-1.02-1.1-4.7 0-.733.034-1.6t.092-1.879a1.285 1.285 0 0 1-.126-.561 1.185 1.185 0 0 1 .218-.7q.229-3.311.229-4.892a9.762 9.762 0 0 0-.115-1.243 9.762 9.762 0 0 1-.115-1.243q0-1.363 1.146-1.363a1.145 1.145 0 0 1 .825.332 23.879 23.879 0 0 1 2.6-.55 15.5 15.5 0 0 1 2.3-.183 12.221 12.221 0 0 1 4.445.665 1.107 1.107 0 0 1 .768 1.1 1.23 1.23 0 0 1-.3.813 1.042 1.042 0 0 1-.83.387zm8.823 15.948a6.471 6.471 0 0 1-4.193-1.295A4.889 4.889 0 0 1 43.63-9.9a8.36 8.36 0 0 1 1.444-5 4.9 4.9 0 0 1 4.193-2.2 6.577 6.577 0 0 1 3.1.642 2.586 2.586 0 0 1 1.478 2.429 2.62 2.62 0 0 1-1.295 2.085 18.286 18.286 0 0 1-2.429 1.283L45.75-8.582a4.18 4.18 0 0 0 1.6 1.432 4.9 4.9 0 0 0 2.228.481 7.033 7.033 0 0 0 1.856-.3 2.947 2.947 0 0 0 1.742-.991q.39-.613.836-.613a1 1 0 0 1 .716.3.95.95 0 0 1 .315.7q0 1.272-2.051 2.188a8.377 8.377 0 0 1-3.415.79zm-.309-10.438a2.937 2.937 0 0 0-2.326 1.083 7.3 7.3 0 0 0-1.386 3.26l3.517-1.673a15.1 15.1 0 0 0 2.956-1.753 3.9 3.9 0 0 0-2.762-.916zm20.726-4.423L68.447-18.4a26.881 26.881 0 0 0-4.72 5.167L59.7-7.379q-.286.435-.561.8l4.461-.17q2.922-.137 4.468-.137a13.1 13.1 0 0 1 2.234.137q.928.183.962.939a1.054 1.054 0 0 1-.367.894 1.3 1.3 0 0 1-.859.286q-.332 0-1-.04t-1-.04q-1.742 0-5.23.086t-5.23.086q-1.318 0-1.318-1.157a3.875 3.875 0 0 1 .71-1.9L58.2-9.3l4.136-5.752a33.116 33.116 0 0 1 4.759-5.248l-4.01.229h-4.629q-.126 0-.372.017t-.361.017a1.059 1.059 0 0 1-1.214-1.18 1 1 0 0 1 .619-1.031 3.479 3.479 0 0 1 1.249-.16q.791 0 2.354.166t2.354.166q.882 0 2.641-.115t2.652-.115q2.945 0 2.945 1.111 0 .755-1.33 1.74zM78.7-4.595a6.471 6.471 0 0 1-4.193-1.295 4.889 4.889 0 0 1-1.752-4.01 8.36 8.36 0 0 1 1.444-5 4.9 4.9 0 0 1 4.193-2.2 6.577 6.577 0 0 1 3.1.642 2.586 2.586 0 0 1 1.478 2.429 2.62 2.62 0 0 1-1.295 2.085 18.285 18.285 0 0 1-2.429 1.283l-4.372 2.079a4.18 4.18 0 0 0 1.6 1.432 4.9 4.9 0 0 0 2.228.481 7.033 7.033 0 0 0 1.856-.3 2.947 2.947 0 0 0 1.742-.988q.39-.613.836-.613a1 1 0 0 1 .716.3.95.95 0 0 1 .315.7q0 1.272-2.051 2.188a8.377 8.377 0 0 1-3.416.787zm-.309-10.438a2.937 2.937 0 0 0-2.326 1.083 7.3 7.3 0 0 0-1.386 3.26l3.521-1.673a15.1 15.1 0 0 0 2.956-1.753 3.9 3.9 0 0 0-2.764-.916z" data-name="Path 97" transform="translate(5.153 41.27)"/>
        </g>
    </g>
</svg>
