<svg xmlns="http://www.w3.org/2000/svg" width="30" height="30" viewBox="0 0 30 30">
    <defs>
        <style>
            .cls-1{fill:#b79afc;stroke:#000;stroke-width:.5px}.cls-2{fill:#fff}.cls-3{stroke:none}.cls-4{fill:none}
        </style>
    </defs>
    <g id="Group_10595" data-name="Group 10595" transform="translate(-1495 114)">
        <g id="Ellipse_157" class="cls-1" data-name="Ellipse 157" transform="translate(1495 -114)">
            <circle cx="15" cy="15" r="15" class="cls-3"/>
            <circle cx="15" cy="15" r="14.75" class="cls-4"/>
        </g>
        <g id="Group_10594" data-name="Group 10594" transform="translate(1502.148 -105.504)">
            <g id="Group_10498" data-name="Group 10498" transform="translate(0 4.277)">
                <g id="Group_10497" data-name="Group 10497">
                    <g id="Group-9">
                        <path id="Fill-5" d="M308.369 679.691v-.124c0-3.952 2.838-7.168 6.326-7.168s6.327 3.216 6.327 7.168v.124h1.5v-.124c0-4.778-3.509-8.665-7.823-8.665s-7.823 3.887-7.823 8.665v.124z" class="cls-2" transform="translate(-306.87 -670.902)"/>
                        <path id="Fill-7" d="M327.129 697.667c0-.042-.005-.082-.005-.124a3.666 3.666 0 1 1 7.267 0c0 .042 0 .083-.005.124h1.5v-.124a5.154 5.154 0 1 0-10.26 0v.124z" class="cls-2" transform="translate(-322.934 -688.877)"/>
                        <path id="Fill-9" d="M346.189 715.926c0-.041-.01-.082-.01-.124a.915.915 0 1 1 1.795 0c0 .043-.006.083-.01.124h1.5c0-.041.006-.082.006-.124a2.4 2.4 0 1 0-4.788 0c0 .042 0 .083.006.124z" class="cls-2" transform="translate(-339.253 -707.137)"/>
                    </g>
                </g>
            </g>
            <g id="Group_10579" data-name="Group 10579" transform="rotate(180 7.823 4.395)">
                <g id="Group_10497-2" data-name="Group 10497">
                    <g id="Group-9-2" data-name="Group-9">
                        <path id="Fill-5-2" d="M1.5 8.789v-.124C1.5 4.712 4.335 1.5 7.823 1.5s6.327 3.212 6.327 7.165v.124h1.5v-.124C15.646 3.887 12.137 0 7.823 0S0 3.887 0 8.665v.124z" class="cls-2" data-name="Fill-5"/>
                        <path id="Fill-7-2" d="M1.5 5.775c0-.042-.005-.082-.005-.124A3.925 3.925 0 0 1 5.13 1.5a3.924 3.924 0 0 1 3.633 4.151c0 .042 0 .083-.005.124h1.5v-.124A5.416 5.416 0 0 0 5.13 0 5.416 5.416 0 0 0 0 5.651v.124z" class="cls-2" data-name="Fill-7" transform="translate(2.693 3.014)"/>
                        <path id="Fill-9-2" d="M1.507 2.714c0-.041-.01-.082-.01-.124a1.011 1.011 0 0 1 .9-1.093 1.011 1.011 0 0 1 .9 1.093c0 .043-.006.083-.01.124h1.5c0-.041.006-.082.006-.124A2.5 2.5 0 0 0 2.394 0 2.5 2.5 0 0 0 0 2.59c0 .042 0 .083.006.124z" class="cls-2" data-name="Fill-9" transform="translate(5.429 6.075)"/>
                    </g>
                </g>
            </g>
        </g>
    </g>
</svg>
