<svg xmlns="http://www.w3.org/2000/svg" width="30" height="30" viewBox="0 0 30 30">
    <defs>
        <style>
            .cls-1{fill:#ff809b;stroke:#000;stroke-width:.5px}.cls-2{fill:#fff}.cls-3{stroke:none}.cls-4{fill:none}
        </style>
    </defs>
    <g id="Group_10602" data-name="Group 10602" transform="translate(-1373 333)">
        <g id="Ellipse_158" class="cls-1" data-name="Ellipse 158" transform="translate(1373 -333)">
            <circle cx="15" cy="15" r="15" class="cls-3"/>
            <circle cx="15" cy="15" r="14.75" class="cls-4"/>
        </g>
        <g id="Group_10601" data-name="Group 10601" transform="translate(1377.16 -327.199)">
            <path id="Fill-1" d="M5.549 10.341A4.15 4.15 0 0 1 1.72 4.6l1.868 1.488 1.986-3.4 2.184 3.433 1.626-1.51a4.15 4.15 0 0 1-3.835 5.73m4.6-7.25l-.458-.678-1.654 1.536L5.524 0 3.2 3.982 1.339 2.5l-.423.64a5.549 5.549 0 1 0 9.234-.05" class="cls-2" transform="translate(5.167)"/>
            <path id="Fill-1-2" d="M5.549 10.341A4.15 4.15 0 0 1 1.72 4.6l1.868 1.488 1.986-3.4 2.184 3.433 1.626-1.51a4.15 4.15 0 0 1-3.835 5.73m4.6-7.25l-.458-.678-1.654 1.536L5.524 0 3.2 3.982 1.339 2.5l-.423.64a5.549 5.549 0 1 0 9.234-.05" class="cls-2" data-name="Fill-1" transform="rotate(150 8.896 10.183)"/>
            <path id="Fill-1-3" d="M5.549 10.341A4.15 4.15 0 0 1 1.72 4.6l1.868 1.488 1.986-3.4 2.184 3.433 1.626-1.51a4.15 4.15 0 0 1-3.835 5.73m4.6-7.25l-.458-.678-1.654 1.536L5.524 0 3.2 3.982 1.339 2.5l-.423.64a5.549 5.549 0 1 0 9.234-.05" class="cls-2" data-name="Fill-1" transform="rotate(-150 7.499 8.763)"/>
        </g>
    </g>
</svg>
