<svg xmlns="http://www.w3.org/2000/svg" width="30" height="30" viewBox="0 0 30 30">
    <defs>
        <style>
            .cls-1{fill:#0f1f64;stroke:#000;stroke-width:.5px}.cls-2{fill:#fff}.cls-3{stroke:none}.cls-4{fill:none}
        </style>
    </defs>
    <g id="Group_10863" data-name="Group 10863" transform="translate(-200 -579)">
        <g id="Ellipse_125" class="cls-1" data-name="Ellipse 125" transform="translate(200 579)">
            <circle cx="15" cy="15" r="15" class="cls-3"/>
            <circle cx="15" cy="15" r="14.75" class="cls-4"/>
        </g>
        <path id="Path_4827" d="M740.757 270.169c-3.277 5.643-15.243 5.106-18 .149a9.579 9.579 0 0 1 8.737-5.294 9.912 9.912 0 0 1 9.263 5.145zm-9.914 1.338v-3.773c-.907.179-1.69.274-2.435.5a.989.989 0 0 0-.521 1.7 3.817 3.817 0 0 0 2.956 1.573zm6.5-3.5a8.454 8.454 0 0 0-11.287.068 13.309 13.309 0 0 1 11.283-.067zm-1.18.648l-3.2-.95v3.9c1.461-.644 2.894-.953 3.196-2.949z" class="cls-2" data-name="Path 4827" transform="translate(-516.757 323.983)"/>
    </g>
</svg>
