<svg xmlns="http://www.w3.org/2000/svg" width="15" height="15" viewBox="0 0 15 15">
    <path d="M9.082 5.566a.293.293 0 1 0 .293.293.293.293 0 0 0-.293-.293z" data-name="Path 69"/>
    <path d="M14.657 13l-3.911-3.911a5.807 5.807 0 0 0 .973-3.23 5.859 5.859 0 1 0-5.859 5.859 5.807 5.807 0 0 0 3.23-.973l1.081 1.081L13 14.657A1.172 1.172 0 1 0 14.657 13zm-5.706-2.871a5.279 5.279 0 1 1 1.178-1.178 5.3 5.3 0 0 1-1.178 1.178zm.615.266a5.879 5.879 0 0 0 .828-.828l.831.831a7.111 7.111 0 0 1-.828.828zm4.676 3.848a.585.585 0 0 1-.828 0l-2.6-2.6a7.7 7.7 0 0 0 .828-.828l2.6 2.6a.585.585 0 0 1 0 .828z" data-name="Path 70"/>
    <path d="M5.86 1.172a4.688 4.688 0 1 0 4.688 4.688A4.693 4.693 0 0 0 5.86 1.172zm0 8.789a4.1 4.1 0 1 1 4.1-4.1 4.106 4.106 0 0 1-4.1 4.1z" data-name="Path 71"/>
    <path d="M9.142 4.602a3.521 3.521 0 0 0-3.283-2.258.293.293 0 0 0 0 .586 2.95 2.95 0 0 1 2.736 1.882.293.293 0 0 0 .547-.21z" data-name="Path 72"/>
</svg>
