<svg xmlns="http://www.w3.org/2000/svg" width="185.875" height="107.421" viewBox="0 0 185.875 107.421">
    <defs>
        <style>
            .cls-1{fill:#fff}
        </style>
    </defs>
    <g id="Group_10656" data-name="Group 10656">
        <path id="Fill-14" d="M732.7 724.15c-.623-.351-1.279-.733-1.965-1.132-9.093-5.306-26.018-15.186-48.623 1.587-11.269 8.359-23.992 1.538-31.075-3.782v15.583a43.026 43.026 0 0 0 19.706 5.307 31.672 31.672 0 0 0 19.248-6.491c15.6-11.573 25.846-5.592 34.081-.786.751.438 1.47.857 2.155 1.241 8.36 4.7 20.62 9.065 37.267.3v-15.549c-16.347 11.819-25.584 6.646-30.792 3.722" class="cls-1" transform="translate(-614.547 -634.292)"/>
        <path id="Fill-16" d="M786.013 706.105c-1.032-.579-2.115-1.212-3.248-1.872-15.031-8.768-43-25.091-80.366 2.624-18.626 13.819-39.653 2.546-51.364-6.251v25.759c9.75 5.1 20.955 8.77 32.568 8.77a52.346 52.346 0 0 0 31.818-10.729c25.781-19.125 42.718-9.24 56.328-1.3 1.246.725 2.43 1.419 3.562 2.053 13.821 7.762 34.085 14.984 61.6.5v-25.7c-27.021 19.531-42.291 10.981-50.9 6.146" class="cls-1" transform="translate(-651.034 -659.43)"/>
        <path id="Fill-18" d="M732.7 676.461c-.624-.352-1.279-.734-1.965-1.134-9.094-5.3-26.018-15.178-48.623 1.588-11.269 8.361-23.991 1.539-31.076-3.781v15.585a43.066 43.066 0 0 0 19.7 5.306 31.679 31.679 0 0 0 19.25-6.491c15.6-11.572 25.845-5.593 34.079-.788.754.44 1.47.859 2.155 1.244 8.362 4.7 20.622 9.064 37.269.306v-15.554c-16.348 11.815-25.587 6.646-30.793 3.72" class="cls-1" transform="translate(-614.546 -667.575)"/>
    </g>
</svg>
