<svg xmlns="http://www.w3.org/2000/svg" width="80" height="75.259" viewBox="0 0 80 75.259">
    <g data-name="Group 10798">
        <path d="M79.995 35.115a39.852 39.852 0 0 0-17.2-32.818l-.329-.227-21.737-2-.007.08-.58-.151-4.7 23.106-6.825-17.8-12.071-.41-.09-.213-1.569 1.242A39.425 39.425 0 0 0 .011 37.334c0 20.912 15.222 37.924 33.933 37.924.95 0 1.887-.055 2.818-.141a180.229 180.229 0 0 0 23.646-2.187l.241-.041.217-.114c16.093-8.498 19.285-25.182 19.129-37.66zm-53.5-26.84l7.778 20.287.057-.022-2.562 12.581L17.838 7.98zM3.044 37.308a36.393 36.393 0 0 1 12.179-27.7l17.558 41.769L42.47 3.795C55.727 8.044 64.853 21.59 64.853 37.338c0 18.215-12.438 33.2-28.231 34.746a96.22 96.22 0 0 1-5.8-.065v.028C15.247 70.274 3.045 55.382 3.045 37.307zm56.615 32.667a186.63 186.63 0 0 1-10.685 1.352c11.2-6.206 18.919-19.107 18.919-33.991 0-14.258-6.967-26.863-17.712-33.343l11.206 1.03a36.821 36.821 0 0 1 15.568 30.11c.212 16.842-5.607 28.563-17.295 34.841z" data-name="Path 4682"/>
        <path d="M32.144 62.827a6.182 6.182 0 0 0 4.091-1.723c1.361-1.278.151-2.535-1.568-1.576s-2.546 1.352-4.6.923c-1.768-.369-2.394-.87-2.942.319s2.35 1.999 5.019 2.057z" data-name="Path 4683"/>
        <path d="M54.245 40.5a1.823 1.823 0 0 0 1.159-1.743 42.342 42.342 0 0 0 .632-9.185c-.379-2.286-2.675-1.783-3.454-.755s-1.516 10.192-.379 11.2a1.837 1.837 0 0 0 2.042.483z" data-name="Path 4684"/>
        <path d="M10.35 31.61a21.366 21.366 0 0 0 0 4.655c.253 2.852.38 6.081 1.917 6.291s1.517-6.48.632-9.416-2.549-1.53-2.549-1.53z" data-name="Path 4685"/>
    </g>
</svg>
